<?xml version="1.0" encoding="utf-8"?>
<!-- Generator: Adobe Illustrator 24.1.1, SVG Export Plug-In . SVG Version: 6.00 Build 0)  -->
<svg version="1.1" id="Layer_1" xmlns="http://www.w3.org/2000/svg" xmlns:xlink="http://www.w3.org/1999/xlink" x="0px" y="0px"
	 viewBox="0 0 1250 1747.49" style="enable-background:new 0 0 1250 1747.49;" xml:space="preserve">
<style type="text/css">
	.st0{fill:#347DC1;}
	.st1{fill:#739AD1;}
	.st2{fill:#C9CACC;}
	.st3{clip-path:url(#SVGID_2_);fill:none;stroke:#E6E7E8;stroke-width:1.292;stroke-miterlimit:10;}
	.st4{fill:none;stroke:#E6E7E8;stroke-width:1.292;stroke-miterlimit:10;}
	.st5{clip-path:url(#SVGID_4_);fill:none;stroke:#E6E7E8;stroke-width:1.292;stroke-miterlimit:10;}
	.st6{clip-path:url(#SVGID_6_);fill:none;stroke:#E6E7E8;stroke-width:1.292;stroke-miterlimit:10;}
	.st7{clip-path:url(#SVGID_8_);fill:none;stroke:#E6E7E8;stroke-width:1.292;stroke-miterlimit:10;}
	.st8{clip-path:url(#SVGID_10_);fill:none;stroke:#E6E7E8;stroke-width:1.292;stroke-miterlimit:10;}
	.st9{clip-path:url(#SVGID_12_);fill:none;stroke:#E6E7E8;stroke-width:1.292;stroke-miterlimit:10;}
	.st10{clip-path:url(#SVGID_14_);fill:none;stroke:#E6E7E8;stroke-width:1.292;stroke-miterlimit:10;}
	.st11{clip-path:url(#SVGID_16_);fill:none;stroke:#E6E7E8;stroke-width:1.292;stroke-miterlimit:10;}
	.st12{clip-path:url(#SVGID_18_);fill:none;stroke:#E6E7E8;stroke-width:1.292;stroke-miterlimit:10;}
	.st13{clip-path:url(#SVGID_20_);fill:none;stroke:#E6E7E8;stroke-width:1.292;stroke-miterlimit:10;}
	.st14{clip-path:url(#SVGID_22_);fill:none;stroke:#E6E7E8;stroke-width:1.292;stroke-miterlimit:10;}
	.st15{clip-path:url(#SVGID_24_);fill:none;stroke:#E6E7E8;stroke-width:1.292;stroke-miterlimit:10;}
	.st16{clip-path:url(#SVGID_26_);fill:none;stroke:#E6E7E8;stroke-width:1.292;stroke-miterlimit:10;}
	.st17{clip-path:url(#SVGID_28_);fill:none;stroke:#E6E7E8;stroke-width:1.292;stroke-miterlimit:10;}
	.st18{clip-path:url(#SVGID_30_);fill:none;stroke:#E6E7E8;stroke-width:1.292;stroke-miterlimit:10;}
	.st19{clip-path:url(#SVGID_32_);fill:none;stroke:#E6E7E8;stroke-width:1.292;stroke-miterlimit:10;}
	.st20{clip-path:url(#SVGID_34_);fill:none;stroke:#E6E7E8;stroke-width:1.292;stroke-miterlimit:10;}
	.st21{clip-path:url(#SVGID_36_);fill:none;stroke:#E6E7E8;stroke-width:1.292;stroke-miterlimit:10;}
	.st22{clip-path:url(#SVGID_38_);fill:none;stroke:#E6E7E8;stroke-width:1.292;stroke-miterlimit:10;}
	.st23{clip-path:url(#SVGID_40_);fill:none;stroke:#E6E7E8;stroke-width:1.292;stroke-miterlimit:10;}
	.st24{clip-path:url(#SVGID_42_);fill:none;stroke:#E6E7E8;stroke-width:1.292;stroke-miterlimit:10;}
	.st25{clip-path:url(#SVGID_44_);fill:none;stroke:#E6E7E8;stroke-width:1.292;stroke-miterlimit:10;}
	.st26{clip-path:url(#SVGID_46_);fill:none;stroke:#E6E7E8;stroke-width:1.292;stroke-miterlimit:10;}
	.st27{clip-path:url(#SVGID_48_);fill:none;stroke:#E6E7E8;stroke-width:1.292;stroke-miterlimit:10;}
	.st28{clip-path:url(#SVGID_50_);fill:none;stroke:#E6E7E8;stroke-width:1.292;stroke-miterlimit:10;}
	.st29{clip-path:url(#SVGID_52_);fill:none;stroke:#E6E7E8;stroke-width:1.292;stroke-miterlimit:10;}
	.st30{clip-path:url(#SVGID_54_);fill:none;stroke:#E6E7E8;stroke-width:1.292;stroke-miterlimit:10;}
	.st31{clip-path:url(#SVGID_56_);fill:none;stroke:#E6E7E8;stroke-width:1.292;stroke-miterlimit:10;}
	.st32{clip-path:url(#SVGID_58_);fill:none;stroke:#E6E7E8;stroke-width:1.292;stroke-miterlimit:10;}
	.st33{clip-path:url(#SVGID_60_);fill:none;stroke:#E6E7E8;stroke-width:1.292;stroke-miterlimit:10;}
	.st34{clip-path:url(#SVGID_62_);fill:none;stroke:#E6E7E8;stroke-width:1.292;stroke-miterlimit:10;}
	.st35{fill:#FFFFFF;}
	.st36{font-family:'MyriadPro-Semibold';}
	.st37{font-size:28.4331px;}
	.st38{font-size:23.2635px;}
	.st39{fill:#58595B;}
	.st40{font-family:'MyriadPro-Regular';}
	.st41{font-family:'MyriadPro-Light';}
	.st42{letter-spacing:-3;}
	.st43{letter-spacing:-1;}
	.st44{font-family:'MyriadPro-Black';}
	.st45{font-size:25.8483px;}
	.st46{clip-path:url(#SVGID_64_);fill:none;stroke:#FFCC32;stroke-width:2.326;stroke-miterlimit:10;}
	.st47{font-family:'MyriadPro-LightIt';}
	.st48{clip-path:url(#SVGID_66_);fill:none;stroke:#DADBDC;stroke-width:2.326;stroke-miterlimit:10;}
	.st49{clip-path:url(#SVGID_68_);fill:none;stroke:#6190CB;stroke-width:2.326;stroke-miterlimit:10;}
	.st50{clip-path:url(#SVGID_70_);fill:#347DC1;}
	.st51{clip-path:url(#SVGID_70_);fill:none;stroke:#DADBDC;stroke-width:2.326;stroke-miterlimit:10;}
	.st52{clip-path:url(#SVGID_70_);fill:none;stroke:#FFCC32;stroke-width:2.326;stroke-miterlimit:10;}
	.st53{clip-path:url(#SVGID_70_);fill:none;stroke:#6190CB;stroke-width:2.326;stroke-miterlimit:10;}
</style>
<path class="st0" d="M0,75.47h285.51V0H0V75.47z M285.51,75.47h234.47V0H285.51V75.47z M519.98,75.47h234.47V0H519.98V75.47z
	 M754.45,75.47h258.89V0H754.45V75.47z M1013.34,75.47h234.47V0h-234.47V75.47z"/>
<path class="st1" d="M0,190.02h285.51V75.47H0V190.02z M285.51,190.02h234.47V75.47H285.51V190.02z M519.98,190.02h234.47V75.47
	H519.98V190.02z M754.45,190.02h258.89V75.47H754.45V190.02z M1013.34,190.02h234.47V75.47h-234.47V190.02z"/>
<path class="st2" d="M0,966.71h1247.8v-62.36H0V966.71z M0,252.38h1247.8v-62.36H0V252.38z"/>
<g>
	<defs>
		<rect id="SVGID_1_" x="0" width="1250" height="1747.49"/>
	</defs>
	<clipPath id="SVGID_2_">
		<use xlink:href="#SVGID_1_"  style="overflow:visible;"/>
	</clipPath>
	<line class="st3" x1="0" y1="439.46" x2="285.51" y2="439.46"/>
	<line class="st3" x1="0" y1="314.74" x2="285.51" y2="314.74"/>
</g>
<line class="st4" x1="285.51" y1="314.74" x2="519.98" y2="314.74"/>
<g>
	<defs>
		<rect id="SVGID_3_" x="0" width="1250" height="1747.49"/>
	</defs>
	<clipPath id="SVGID_4_">
		<use xlink:href="#SVGID_3_"  style="overflow:visible;"/>
	</clipPath>
	<line class="st5" x1="0" y1="377.1" x2="285.51" y2="377.1"/>
</g>
<line class="st4" x1="285.51" y1="377.1" x2="519.98" y2="377.1"/>
<line class="st4" x1="519.98" y1="314.74" x2="754.45" y2="314.74"/>
<line class="st4" x1="285.51" y1="439.46" x2="519.98" y2="439.46"/>
<line class="st4" x1="754.45" y1="314.74" x2="1013.34" y2="314.74"/>
<g>
	<defs>
		<rect id="SVGID_5_" x="0" width="1250" height="1747.49"/>
	</defs>
	<clipPath id="SVGID_6_">
		<use xlink:href="#SVGID_5_"  style="overflow:visible;"/>
	</clipPath>
	<line class="st6" x1="1013.34" y1="314.74" x2="1247.8" y2="314.74"/>
</g>
<line class="st4" x1="754.45" y1="377.1" x2="1013.34" y2="377.1"/>
<g>
	<defs>
		<rect id="SVGID_7_" x="0" width="1250" height="1747.49"/>
	</defs>
	<clipPath id="SVGID_8_">
		<use xlink:href="#SVGID_7_"  style="overflow:visible;"/>
	</clipPath>
	<line class="st7" x1="1013.34" y1="377.1" x2="1247.8" y2="377.1"/>
</g>
<line class="st4" x1="754.45" y1="439.46" x2="1013.34" y2="439.46"/>
<g>
	<defs>
		<rect id="SVGID_9_" x="0" width="1250" height="1747.49"/>
	</defs>
	<clipPath id="SVGID_10_">
		<use xlink:href="#SVGID_9_"  style="overflow:visible;"/>
	</clipPath>
	<line class="st8" x1="1013.34" y1="439.46" x2="1247.8" y2="439.46"/>
</g>
<line class="st4" x1="754.45" y1="501.83" x2="1013.34" y2="501.83"/>
<g>
	<defs>
		<rect id="SVGID_11_" x="0" width="1250" height="1747.49"/>
	</defs>
	<clipPath id="SVGID_12_">
		<use xlink:href="#SVGID_11_"  style="overflow:visible;"/>
	</clipPath>
	<line class="st9" x1="1013.34" y1="501.83" x2="1247.8" y2="501.83"/>
</g>
<line class="st4" x1="754.45" y1="586.87" x2="1013.34" y2="586.87"/>
<g>
	<defs>
		<rect id="SVGID_13_" x="0" width="1250" height="1747.49"/>
	</defs>
	<clipPath id="SVGID_14_">
		<use xlink:href="#SVGID_13_"  style="overflow:visible;"/>
	</clipPath>
	<line class="st10" x1="1013.34" y1="586.87" x2="1247.8" y2="586.87"/>
</g>
<line class="st4" x1="754.45" y1="671.91" x2="1013.34" y2="671.91"/>
<g>
	<defs>
		<rect id="SVGID_15_" x="0" width="1250" height="1747.49"/>
	</defs>
	<clipPath id="SVGID_16_">
		<use xlink:href="#SVGID_15_"  style="overflow:visible;"/>
	</clipPath>
	<line class="st11" x1="1013.34" y1="671.91" x2="1247.8" y2="671.91"/>
</g>
<line class="st4" x1="754.45" y1="734.27" x2="1013.34" y2="734.27"/>
<g>
	<defs>
		<rect id="SVGID_17_" x="0" width="1250" height="1747.49"/>
	</defs>
	<clipPath id="SVGID_18_">
		<use xlink:href="#SVGID_17_"  style="overflow:visible;"/>
	</clipPath>
	<line class="st12" x1="1013.34" y1="734.27" x2="1247.8" y2="734.27"/>
</g>
<line class="st4" x1="754.45" y1="819.31" x2="1013.34" y2="819.31"/>
<g>
	<defs>
		<rect id="SVGID_19_" x="0" width="1250" height="1747.49"/>
	</defs>
	<clipPath id="SVGID_20_">
		<use xlink:href="#SVGID_19_"  style="overflow:visible;"/>
	</clipPath>
	<line class="st13" x1="1013.34" y1="819.31" x2="1247.8" y2="819.31"/>
</g>
<line class="st4" x1="754.45" y1="1051.75" x2="1013.34" y2="1051.75"/>
<g>
	<defs>
		<rect id="SVGID_21_" x="0" width="1250" height="1747.49"/>
	</defs>
	<clipPath id="SVGID_22_">
		<use xlink:href="#SVGID_21_"  style="overflow:visible;"/>
	</clipPath>
	<line class="st14" x1="1013.34" y1="1051.75" x2="1247.8" y2="1051.75"/>
</g>
<line class="st4" x1="754.45" y1="1114.11" x2="1013.34" y2="1114.11"/>
<g>
	<defs>
		<rect id="SVGID_23_" x="0" width="1250" height="1747.49"/>
	</defs>
	<clipPath id="SVGID_24_">
		<use xlink:href="#SVGID_23_"  style="overflow:visible;"/>
	</clipPath>
	<line class="st15" x1="1013.34" y1="1114.11" x2="1247.8" y2="1114.11"/>
</g>
<line class="st4" x1="754.45" y1="1176.47" x2="1013.34" y2="1176.47"/>
<g>
	<defs>
		<rect id="SVGID_25_" x="0" width="1250" height="1747.49"/>
	</defs>
	<clipPath id="SVGID_26_">
		<use xlink:href="#SVGID_25_"  style="overflow:visible;"/>
	</clipPath>
	<line class="st16" x1="1013.34" y1="1176.47" x2="1247.8" y2="1176.47"/>
</g>
<line class="st4" x1="754.45" y1="1238.83" x2="1013.34" y2="1238.83"/>
<g>
	<defs>
		<rect id="SVGID_27_" x="0" width="1250" height="1747.49"/>
	</defs>
	<clipPath id="SVGID_28_">
		<use xlink:href="#SVGID_27_"  style="overflow:visible;"/>
	</clipPath>
	<line class="st17" x1="1013.34" y1="1238.83" x2="1247.8" y2="1238.83"/>
</g>
<line class="st4" x1="754.45" y1="1323.87" x2="1013.34" y2="1323.87"/>
<g>
	<defs>
		<rect id="SVGID_29_" x="0" width="1250" height="1747.49"/>
	</defs>
	<clipPath id="SVGID_30_">
		<use xlink:href="#SVGID_29_"  style="overflow:visible;"/>
	</clipPath>
	<line class="st18" x1="1013.34" y1="1323.87" x2="1247.8" y2="1323.87"/>
</g>
<line class="st4" x1="754.45" y1="1408.91" x2="1013.34" y2="1408.91"/>
<g>
	<defs>
		<rect id="SVGID_31_" x="0" width="1250" height="1747.49"/>
	</defs>
	<clipPath id="SVGID_32_">
		<use xlink:href="#SVGID_31_"  style="overflow:visible;"/>
	</clipPath>
	<line class="st19" x1="1013.34" y1="1408.91" x2="1247.8" y2="1408.91"/>
</g>
<line class="st4" x1="754.45" y1="1493.95" x2="1013.34" y2="1493.95"/>
<g>
	<defs>
		<rect id="SVGID_33_" x="0" width="1250" height="1747.49"/>
	</defs>
	<clipPath id="SVGID_34_">
		<use xlink:href="#SVGID_33_"  style="overflow:visible;"/>
	</clipPath>
	<line class="st20" x1="1013.34" y1="1493.95" x2="1247.8" y2="1493.95"/>
</g>
<line class="st4" x1="754.45" y1="1604.68" x2="1013.34" y2="1604.68"/>
<g>
	<defs>
		<rect id="SVGID_35_" x="0" width="1250" height="1747.49"/>
	</defs>
	<clipPath id="SVGID_36_">
		<use xlink:href="#SVGID_35_"  style="overflow:visible;"/>
	</clipPath>
	<line class="st21" x1="1013.34" y1="1604.68" x2="1247.8" y2="1604.68"/>
</g>
<line class="st4" x1="519.98" y1="377.1" x2="754.45" y2="377.1"/>
<line class="st4" x1="519.98" y1="439.46" x2="754.45" y2="439.46"/>
<line class="st4" x1="519.98" y1="501.83" x2="754.45" y2="501.83"/>
<line class="st4" x1="519.98" y1="586.87" x2="754.45" y2="586.87"/>
<line class="st4" x1="519.98" y1="671.91" x2="754.45" y2="671.91"/>
<line class="st4" x1="519.98" y1="734.27" x2="754.45" y2="734.27"/>
<line class="st4" x1="519.98" y1="819.31" x2="754.45" y2="819.31"/>
<line class="st4" x1="519.98" y1="1051.75" x2="754.45" y2="1051.75"/>
<line class="st4" x1="519.98" y1="1114.11" x2="754.45" y2="1114.11"/>
<line class="st4" x1="519.98" y1="1176.47" x2="754.45" y2="1176.47"/>
<line class="st4" x1="519.98" y1="1238.83" x2="754.45" y2="1238.83"/>
<line class="st4" x1="519.98" y1="1323.87" x2="754.45" y2="1323.87"/>
<line class="st4" x1="519.98" y1="1408.91" x2="754.45" y2="1408.91"/>
<line class="st4" x1="519.98" y1="1493.95" x2="754.45" y2="1493.95"/>
<line class="st4" x1="519.98" y1="1604.68" x2="754.45" y2="1604.68"/>
<g>
	<defs>
		<rect id="SVGID_37_" x="0" width="1250" height="1747.49"/>
	</defs>
	<clipPath id="SVGID_38_">
		<use xlink:href="#SVGID_37_"  style="overflow:visible;"/>
	</clipPath>
	<line class="st22" x1="0" y1="501.83" x2="285.51" y2="501.83"/>
</g>
<line class="st4" x1="285.51" y1="501.83" x2="519.98" y2="501.83"/>
<g>
	<defs>
		<rect id="SVGID_39_" x="0" width="1250" height="1747.49"/>
	</defs>
	<clipPath id="SVGID_40_">
		<use xlink:href="#SVGID_39_"  style="overflow:visible;"/>
	</clipPath>
	<line class="st23" x1="0" y1="586.87" x2="285.51" y2="586.87"/>
</g>
<line class="st4" x1="285.51" y1="586.87" x2="519.98" y2="586.87"/>
<g>
	<defs>
		<rect id="SVGID_41_" x="0" width="1250" height="1747.49"/>
	</defs>
	<clipPath id="SVGID_42_">
		<use xlink:href="#SVGID_41_"  style="overflow:visible;"/>
	</clipPath>
	<line class="st24" x1="0" y1="671.91" x2="285.51" y2="671.91"/>
</g>
<line class="st4" x1="285.51" y1="671.91" x2="519.98" y2="671.91"/>
<g>
	<defs>
		<rect id="SVGID_43_" x="0" width="1250" height="1747.49"/>
	</defs>
	<clipPath id="SVGID_44_">
		<use xlink:href="#SVGID_43_"  style="overflow:visible;"/>
	</clipPath>
	<line class="st25" x1="0" y1="734.27" x2="285.51" y2="734.27"/>
</g>
<line class="st4" x1="285.51" y1="734.27" x2="519.98" y2="734.27"/>
<g>
	<defs>
		<rect id="SVGID_45_" x="0" width="1250" height="1747.49"/>
	</defs>
	<clipPath id="SVGID_46_">
		<use xlink:href="#SVGID_45_"  style="overflow:visible;"/>
	</clipPath>
	<line class="st26" x1="0" y1="819.31" x2="285.51" y2="819.31"/>
</g>
<line class="st4" x1="285.51" y1="819.31" x2="519.98" y2="819.31"/>
<g>
	<defs>
		<rect id="SVGID_47_" x="0" width="1250" height="1747.49"/>
	</defs>
	<clipPath id="SVGID_48_">
		<use xlink:href="#SVGID_47_"  style="overflow:visible;"/>
	</clipPath>
	<line class="st27" x1="0" y1="1051.75" x2="285.51" y2="1051.75"/>
</g>
<line class="st4" x1="285.51" y1="1051.75" x2="519.98" y2="1051.75"/>
<g>
	<defs>
		<rect id="SVGID_49_" x="0" width="1250" height="1747.49"/>
	</defs>
	<clipPath id="SVGID_50_">
		<use xlink:href="#SVGID_49_"  style="overflow:visible;"/>
	</clipPath>
	<line class="st28" x1="0" y1="1114.11" x2="285.51" y2="1114.11"/>
</g>
<line class="st4" x1="285.51" y1="1114.11" x2="519.98" y2="1114.11"/>
<g>
	<defs>
		<rect id="SVGID_51_" x="0" width="1250" height="1747.49"/>
	</defs>
	<clipPath id="SVGID_52_">
		<use xlink:href="#SVGID_51_"  style="overflow:visible;"/>
	</clipPath>
	<line class="st29" x1="0" y1="1176.47" x2="285.51" y2="1176.47"/>
</g>
<line class="st4" x1="285.51" y1="1176.47" x2="519.98" y2="1176.47"/>
<g>
	<defs>
		<rect id="SVGID_53_" x="0" width="1250" height="1747.49"/>
	</defs>
	<clipPath id="SVGID_54_">
		<use xlink:href="#SVGID_53_"  style="overflow:visible;"/>
	</clipPath>
	<line class="st30" x1="0" y1="1238.83" x2="285.51" y2="1238.83"/>
</g>
<line class="st4" x1="285.51" y1="1238.83" x2="519.98" y2="1238.83"/>
<g>
	<defs>
		<rect id="SVGID_55_" x="0" width="1250" height="1747.49"/>
	</defs>
	<clipPath id="SVGID_56_">
		<use xlink:href="#SVGID_55_"  style="overflow:visible;"/>
	</clipPath>
	<line class="st31" x1="0" y1="1323.87" x2="285.51" y2="1323.87"/>
</g>
<line class="st4" x1="285.51" y1="1323.87" x2="519.98" y2="1323.87"/>
<g>
	<defs>
		<rect id="SVGID_57_" x="0" width="1250" height="1747.49"/>
	</defs>
	<clipPath id="SVGID_58_">
		<use xlink:href="#SVGID_57_"  style="overflow:visible;"/>
	</clipPath>
	<line class="st32" x1="0" y1="1408.91" x2="285.51" y2="1408.91"/>
</g>
<line class="st4" x1="285.51" y1="1408.91" x2="519.98" y2="1408.91"/>
<g>
	<defs>
		<rect id="SVGID_59_" x="0" width="1250" height="1747.49"/>
	</defs>
	<clipPath id="SVGID_60_">
		<use xlink:href="#SVGID_59_"  style="overflow:visible;"/>
	</clipPath>
	<line class="st33" x1="0" y1="1493.95" x2="285.51" y2="1493.95"/>
</g>
<line class="st4" x1="285.51" y1="1493.95" x2="519.98" y2="1493.95"/>
<g>
	<defs>
		<rect id="SVGID_61_" x="0" width="1250" height="1747.49"/>
	</defs>
	<clipPath id="SVGID_62_">
		<use xlink:href="#SVGID_61_"  style="overflow:visible;"/>
	</clipPath>
	<line class="st34" x1="0" y1="1604.68" x2="285.51" y2="1604.68"/>
</g>
<line class="st4" x1="285.51" y1="1604.68" x2="519.98" y2="1604.68"/>
<text transform="matrix(1 0 0 1 289.5119 48.3972)"><tspan x="0" y="0" class="st35 st36 st37">S</tspan><tspan x="13.93" y="0" class="st35 st36 st37">ta</tspan><tspan x="37.05" y="0" class="st35 st36 st37">r</tspan><tspan x="47" y="0" class="st35 st36 st37">t</tspan><tspan x="56.24" y="0" class="st35 st36 st37">er</tspan></text>
<text transform="matrix(1 0 0 1 523.9709 48.3972)"><tspan x="0" y="0" class="st35 st36 st37">M</tspan><tspan x="23" y="0" class="st35 st36 st37">o</tspan><tspan x="38.38" y="0" class="st35 st36 st37">ving Up</tspan></text>
<text transform="matrix(1 0 0 1 758.4308 48.3972)"><tspan x="0" y="0" class="st35 st36 st37">E</tspan><tspan x="13.99" y="0" class="st35 st36 st37">n</tspan><tspan x="29.66" y="0" class="st35 st36 st37">t</tspan><tspan x="38.92" y="0" class="st35 st36 st37">erprise</tspan></text>
<text transform="matrix(1 0 0 1 1017.3137 48.3972)"><tspan x="0" y="0" class="st35 st36 st37">La</tspan><tspan x="27.12" y="0" class="st35 st36 st37">r</tspan><tspan x="36.22" y="0" class="st35 st36 st37">ge E</tspan><tspan x="86.38" y="0" class="st35 st36 st37">n</tspan><tspan x="102.04" y="0" class="st35 st36 st37">t</tspan><tspan x="111.31" y="0" class="st35 st36 st37">erprise</tspan></text>
<text transform="matrix(1 0 0 1 295.8508 110.4485)"><tspan x="0" y="0" class="st35 st36 st38">F</tspan><tspan x="10.7" y="0" class="st35 st36 st38">or smal</tspan><tspan x="81.33" y="0" class="st35 st36 st38">l</tspan><tspan x="86.61" y="0" class="st35 st36 st38">, or </tspan></text>
<path class="st35" d="M307.83,124.94v13.33c0,1.16,0.05,2.42,0.09,3.19h-2.56l-0.12-1.79h-0.05c-0.67,1.26-2.05,2.05-3.7,2.05
	c-2.7,0-4.84-2.3-4.84-5.79c-0.02-3.79,2.35-6.05,5.07-6.05c1.56,0,2.68,0.65,3.19,1.49h0.05v-6.42H307.83z M304.97,134.85
	c0-0.23-0.02-0.51-0.07-0.74c-0.26-1.12-1.16-2.02-2.47-2.02c-1.84,0-2.86,1.63-2.86,3.75c0,2.07,1.02,3.58,2.84,3.58
	c1.16,0,2.19-0.79,2.47-2.02c0.07-0.26,0.09-0.54,0.09-0.84V134.85z M321.68,135.69c0,4.17-2.93,6.03-5.82,6.03
	c-3.21,0-5.68-2.21-5.68-5.84c0-3.72,2.44-6,5.86-6C319.42,129.87,321.68,132.24,321.68,135.69z M313.14,135.8
	c0,2.19,1.07,3.84,2.82,3.84c1.63,0,2.77-1.61,2.77-3.89c0-1.77-0.79-3.79-2.75-3.79C313.95,131.96,313.14,133.92,313.14,135.8z
	 M324.02,133.78c0-1.54-0.02-2.63-0.09-3.65h2.49l0.09,2.16h0.09c0.56-1.61,1.88-2.42,3.09-2.42c0.28,0,0.44,0.02,0.67,0.07v2.7
	c-0.23-0.05-0.49-0.09-0.84-0.09c-1.37,0-2.3,0.88-2.56,2.16c-0.05,0.26-0.09,0.56-0.09,0.88v5.86h-2.86V133.78z M332.3,133.5
	c0-1.3-0.02-2.4-0.09-3.37h2.47l0.12,1.68h0.07c0.56-0.88,1.58-1.93,3.49-1.93c1.49,0,2.65,0.84,3.14,2.09h0.05
	c0.4-0.63,0.86-1.09,1.4-1.42c0.63-0.44,1.35-0.67,2.28-0.67c1.88,0,3.79,1.28,3.79,4.91v6.68h-2.79v-6.26c0-1.88-0.65-3-2.02-3
	c-0.98,0-1.7,0.7-2,1.51c-0.07,0.28-0.14,0.63-0.14,0.95v6.79h-2.79v-6.56c0-1.58-0.63-2.7-1.95-2.7c-1.07,0-1.79,0.84-2.05,1.63
	c-0.12,0.28-0.16,0.6-0.16,0.93v6.7h-2.79V133.5z M358.41,141.46l-0.19-1.26h-0.07c-0.7,0.88-1.88,1.51-3.35,1.51
	c-2.28,0-3.56-1.65-3.56-3.37c0-2.86,2.54-4.3,6.72-4.28v-0.19c0-0.74-0.3-1.98-2.3-1.98c-1.12,0-2.28,0.35-3.05,0.84l-0.56-1.86
	c0.84-0.51,2.3-1,4.1-1c3.63,0,4.68,2.3,4.68,4.77v4.1c0,1.02,0.05,2.02,0.16,2.72H358.41z M358.04,135.92
	c-2.02-0.05-3.96,0.4-3.96,2.12c0,1.12,0.72,1.63,1.63,1.63c1.14,0,1.98-0.74,2.23-1.56c0.07-0.21,0.09-0.44,0.09-0.63V135.92z
	 M363.85,133.5c0-1.3-0.02-2.4-0.09-3.37h2.51l0.14,1.7h0.07c0.49-0.88,1.72-1.95,3.61-1.95c1.98,0,4.03,1.28,4.03,4.86v6.72h-2.86
	v-6.4c0-1.63-0.61-2.86-2.16-2.86c-1.14,0-1.93,0.81-2.23,1.68c-0.09,0.26-0.12,0.61-0.12,0.93v6.66h-2.89V133.5z M380.32,126.89
	v3.23h2.72v2.14h-2.72v5c0,1.37,0.37,2.09,1.47,2.09c0.49,0,0.86-0.07,1.12-0.14l0.05,2.19c-0.42,0.16-1.16,0.28-2.07,0.28
	c-1.05,0-1.93-0.35-2.47-0.93c-0.6-0.65-0.88-1.68-0.88-3.16v-5.33h-1.63v-2.14h1.63v-2.56L380.32,126.89z M390.35,141.46v-9.19
	h-1.54v-2.14h1.54v-0.54c0-3.05,2.12-4.91,5.49-4.91c1.12,0,2.47,0.3,3.12,0.72l-0.63,2.16c-0.54-0.3-1.42-0.6-2.49-0.6
	c-2,0-2.65,1.21-2.65,2.7v0.47h6.77v11.33h-2.89v-9.19h-3.86v9.19H390.35z M403.03,133.78c0-1.54-0.02-2.63-0.09-3.65h2.49
	l0.09,2.16h0.09c0.56-1.61,1.88-2.42,3.09-2.42c0.28,0,0.44,0.02,0.67,0.07v2.7c-0.23-0.05-0.49-0.09-0.84-0.09
	c-1.37,0-2.3,0.88-2.56,2.16c-0.05,0.26-0.09,0.56-0.09,0.88v5.86h-2.86V133.78z M411.31,133.5c0-1.3-0.02-2.4-0.09-3.37h2.47
	l0.12,1.68h0.07c0.56-0.88,1.58-1.93,3.49-1.93c1.49,0,2.65,0.84,3.14,2.09h0.05c0.4-0.63,0.86-1.09,1.4-1.42
	c0.63-0.44,1.35-0.67,2.28-0.67c1.88,0,3.79,1.28,3.79,4.91v6.68h-2.79v-6.26c0-1.88-0.65-3-2.02-3c-0.98,0-1.7,0.7-2,1.51
	c-0.07,0.28-0.14,0.63-0.14,0.95v6.79h-2.79v-6.56c0-1.58-0.63-2.7-1.95-2.7c-1.07,0-1.79,0.84-2.05,1.63
	c-0.12,0.28-0.16,0.6-0.16,0.93v6.7h-2.79V133.5z M430.9,138.83c0.65,0.4,1.88,0.81,2.91,0.81c1.26,0,1.82-0.51,1.82-1.26
	c0-0.77-0.47-1.16-1.86-1.65c-2.21-0.77-3.14-1.98-3.12-3.3c0-2,1.65-3.56,4.28-3.56c1.26,0,2.35,0.33,3,0.67l-0.56,2.02
	c-0.49-0.28-1.4-0.65-2.4-0.65c-1.02,0-1.58,0.49-1.58,1.19c0,0.72,0.54,1.07,1.98,1.58c2.05,0.74,3,1.79,3.03,3.47
	c0,2.05-1.61,3.54-4.61,3.54c-1.37,0-2.61-0.33-3.44-0.79L430.9,138.83z M445.44,134.43l11.03-5.35v2.09l-8.75,4.07v0.05l8.75,4.1
	v2.07l-11.03-5.35V134.43z"/>
<text transform="matrix(1 0 0 1 295.8508 172.469)"><tspan x="0" y="0" class="st35 st36 st38">¥1m </tspan><tspan x="48.2" y="0" class="st35 st36 st38">r</tspan><tspan x="55.62" y="0" class="st35 st36 st38">e</tspan><tspan x="67.23" y="0" class="st35 st36 st38">v</tspan><tspan x="78.12" y="0" class="st35 st36 st38">enue P/A</tspan></text>
<text transform="matrix(1 0 0 1 530.3234 110.425)"><tspan x="0" y="0" class="st35 st36 st38">F</tspan><tspan x="10.7" y="0" class="st35 st36 st38">or small </tspan><tspan x="91.75" y="0" class="st35 st36 st38">c</tspan><tspan x="101.99" y="0" class="st35 st36 st38">ompanies </tspan></text>
<text transform="matrix(1 0 0 1 530.3234 141.4353)"><tspan x="0" y="0" class="st35 st36 st38">with up </tspan><tspan x="79.09" y="0" class="st35 st36 st38">t</tspan><tspan x="86.68" y="0" class="st35 st36 st38">o ¥5m </tspan></text>
<text transform="matrix(1 0 0 1 530.3234 172.4455)"><tspan x="0" y="0" class="st35 st36 st38">r</tspan><tspan x="7.42" y="0" class="st35 st36 st38">e</tspan><tspan x="19.03" y="0" class="st35 st36 st38">v</tspan><tspan x="29.92" y="0" class="st35 st36 st38">enue P/A</tspan></text>
<text transform="matrix(1 0 0 1 764.7961 110.4021)"><tspan x="0" y="0" class="st35 st36 st38">F</tspan><tspan x="10.7" y="0" class="st35 st36 st38">or </tspan><tspan x="36.01" y="0" class="st35 st36 st38">c</tspan><tspan x="46.25" y="0" class="st35 st36 st38">ompanies with </tspan></text>
<text transform="matrix(1 0 0 1 764.7961 141.4123)"><tspan x="0" y="0" class="st35 st36 st38">mo</tspan><tspan x="32.17" y="0" class="st35 st36 st38">r</tspan><tspan x="39.59" y="0" class="st35 st36 st38">e than ¥5m </tspan></text>
<text transform="matrix(1 0 0 1 764.7961 172.4226)"><tspan x="0" y="0" class="st35 st36 st38">A</tspan><tspan x="14.14" y="0" class="st35 st36 st38">nnual </tspan><tspan x="74.42" y="0" class="st35 st36 st38">R</tspan><tspan x="87" y="0" class="st35 st36 st38">e</tspan><tspan x="98.61" y="0" class="st35 st36 st38">v</tspan><tspan x="109.5" y="0" class="st35 st36 st38">enue</tspan></text>
<text transform="matrix(1 0 0 1 1023.6955 110.3787)"><tspan x="0" y="0" class="st35 st36 st38">F</tspan><tspan x="10.7" y="0" class="st35 st36 st38">or la</tspan><tspan x="52.71" y="0" class="st35 st36 st38">r</tspan><tspan x="60.16" y="0" class="st35 st36 st38">ger and </tspan></text>
<text transform="matrix(1 0 0 1 1023.6955 141.3889)"><tspan x="0" y="0" class="st35 st36 st38">cus</tspan><tspan x="32.45" y="0" class="st35 st36 st38">t</tspan><tspan x="40.04" y="0" class="st35 st36 st38">omi</tspan><tspan x="77.65" y="0" class="st35 st36 st38">z</tspan><tspan x="87.47" y="0" class="st35 st36 st38">e </tspan></text>
<text transform="matrix(1 0 0 1 1023.6955 172.3992)"><tspan x="0" y="0" class="st35 st36 st38">r</tspan><tspan x="7.42" y="0" class="st35 st36 st38">equi</tspan><tspan x="50.43" y="0" class="st35 st36 st38">r</tspan><tspan x="57.86" y="0" class="st35 st36 st38">eme</tspan><tspan x="100.57" y="0" class="st35 st36 st38">n</tspan><tspan x="113.39" y="0" class="st35 st36 st38">ts</tspan></text>
<text transform="matrix(1 0 0 1 422.7531 229.8367)"><tspan x="0" y="0" class="st39 st36 st38">C</tspan><tspan x="13.14" y="0" class="st39 st36 st38">orpo</tspan><tspan x="59.53" y="0" class="st39 st36 st38">r</tspan><tspan x="66.95" y="0" class="st39 st36 st38">a</tspan><tspan x="78.02" y="0" class="st39 st36 st38">t</tspan><tspan x="85.61" y="0" class="st39 st36 st38">e </tspan><tspan x="102.2" y="0" class="st39 st36 st38">A</tspan><tspan x="116.15" y="0" class="st39 st36 st38">cc</tspan><tspan x="136.63" y="0" class="st39 st36 st38">ou</tspan><tspan x="162.21" y="0" class="st39 st36 st38">n</tspan><tspan x="175.03" y="0" class="st39 st36 st38">ting &amp; </tspan><tspan x="238.03" y="0" class="st39 st36 st38">P</tspan><tspan x="249.94" y="0" class="st39 st36 st38">a</tspan><tspan x="260.94" y="0" class="st39 st36 st38">y</tspan><tspan x="271.9" y="0" class="st39 st36 st38">r</tspan><tspan x="279.32" y="0" class="st39 st36 st38">oll </tspan><tspan x="308" y="0" class="st39 st36 st38">S</tspan><tspan x="319.59" y="0" class="st39 st36 st38">e</tspan><tspan x="331.25" y="0" class="st39 st36 st38">r</tspan><tspan x="339.37" y="0" class="st39 st36 st38">vi</tspan><tspan x="356" y="0" class="st39 st36 st38">c</tspan><tspan x="366.23" y="0" class="st39 st36 st38">es</tspan></text>
<text transform="matrix(1 0 0 1 14.6877 292.2063)"><tspan x="0" y="0" class="st39 st40 st38">B</tspan><tspan x="12.7" y="0" class="st39 st40 st38">oo</tspan><tspan x="38.24" y="0" class="st39 st40 st38">k</tspan><tspan x="49.53" y="0" class="st39 st40 st38">keeping</tspan></text>
<text transform="matrix(1 0 0 1 304.1096 292.2063)"><tspan x="0" y="0" class="st39 st41 st38">Up </tspan><tspan x="33.22" y="0" class="st39 st41 st38">t</tspan><tspan x="40.8" y="0" class="st39 st41 st38">o 20 transa</tspan><tspan x="147.16" y="0" class="st39 st41 st38">c</tspan><tspan x="157.84" y="0" class="st39 st41 st38">tions</tspan></text>
<text transform="matrix(1 0 0 1 538.5822 292.2063)"><tspan x="0" y="0" class="st39 st41 st38">Up </tspan><tspan x="33.22" y="0" class="st39 st41 st38">t</tspan><tspan x="40.8" y="0" class="st39 st41 st38">o 50 transa</tspan><tspan x="147.16" y="0" class="st39 st41 st38">c</tspan><tspan x="157.84" y="0" class="st39 st41 st38">tions</tspan><tspan x="205.88" y="0" class="st39 st41 st38 st42"> </tspan><tspan x="207.02" y="0" class="st39 st41 st38"> </tspan></text>
<text transform="matrix(1 0 0 1 779.592 292.2063)"><tspan x="0" y="0" class="st39 st41 st38">Up </tspan><tspan x="33.22" y="0" class="st39 st41 st38">t</tspan><tspan x="40.8" y="0" class="st39 st41 st38">o 100 transa</tspan><tspan x="159.09" y="0" class="st39 st41 st38">c</tspan><tspan x="169.77" y="0" class="st39 st41 st38">tions</tspan></text>
<text transform="matrix(1 0 0 1 14.7111 354.5759)"><tspan x="0" y="0" class="st39 st40 st38">P</tspan><tspan x="11.77" y="0" class="st39 st40 st38">a</tspan><tspan x="22.8" y="0" class="st39 st40 st38">y</tspan><tspan x="33.75" y="0" class="st39 st40 st38">r</tspan><tspan x="41.13" y="0" class="st39 st40 st38">oll</tspan></text>
<text transform="matrix(1 0 0 1 300.2238 354.5759)"><tspan x="0" y="0" class="st39 st41 st38">Up </tspan><tspan x="32.59" y="0" class="st39 st41 st38">t</tspan><tspan x="39.92" y="0" class="st39 st41 st38">o 5 empl</tspan><tspan x="122.6" y="0" class="st39 st41 st38">o</tspan><tspan x="135.04" y="0" class="st39 st41 st38">y</tspan><tspan x="145.63" y="0" class="st39 st41 st38">ee</tspan><tspan x="168.52" y="0" class="st39 st41 st38">s</tspan></text>
<text transform="matrix(1 0 0 1 534.6974 354.5759)"><tspan x="0" y="0" class="st39 st41 st38">Up </tspan><tspan x="32.59" y="0" class="st39 st41 st38">t</tspan><tspan x="39.92" y="0" class="st39 st41 st38">o 15 empl</tspan><tspan x="134.32" y="0" class="st39 st41 st38">o</tspan><tspan x="146.74" y="0" class="st39 st41 st38">y</tspan><tspan x="157.33" y="0" class="st39 st41 st38">ee</tspan><tspan x="180.22" y="0" class="st39 st41 st38">s</tspan></text>
<text transform="matrix(1 0 0 1 769.1701 354.5759)"><tspan x="0" y="0" class="st39 st41 st38 st43">F</tspan><tspan x="10.33" y="0" class="st39 st41 st38">o</tspan><tspan x="22.87" y="0" class="st39 st41 st38">r up </tspan><tspan x="65.35" y="0" class="st39 st41 st38">t</tspan><tspan x="72.7" y="0" class="st39 st41 st38">o 30 empl</tspan><tspan x="167.1" y="0" class="st39 st41 st38">o</tspan><tspan x="179.54" y="0" class="st39 st41 st38">y</tspan><tspan x="190.13" y="0" class="st39 st41 st38">ee</tspan><tspan x="213.02" y="0" class="st39 st41 st38">s</tspan></text>
<text transform="matrix(1 0 0 1 1084.7854 354.5759)"><tspan x="0" y="0" class="st39 st41 st38">Unlimi</tspan><tspan x="63.74" y="0" class="st39 st41 st38">t</tspan><tspan x="71.3" y="0" class="st39 st41 st38">ed</tspan></text>
<text transform="matrix(1 0 0 1 14.7346 416.9451)"><tspan x="0" y="0" class="st39 st40 st38">C</tspan><tspan x="13.35" y="0" class="st39 st40 st38">ashier </tspan><tspan x="76.33" y="0" class="st39 st40 st38">M</tspan><tspan x="95.15" y="0" class="st39 st40 st38">anageme</tspan><tspan x="186.2" y="0" class="st39 st40 st38">n</tspan><tspan x="199.04" y="0" class="st39 st40 st38">t</tspan></text>
<text transform="matrix(1 0 0 1 14.7346 479.3142)"><tspan x="0" y="0" class="st39 st40 st38">S</tspan><tspan x="11.4" y="0" class="st39 st40 st38">t</tspan><tspan x="19.1" y="0" class="st39 st40 st38">a</tspan><tspan x="30.22" y="0" class="st39 st40 st38">tu</tspan><tspan x="50.74" y="0" class="st39 st40 st38">t</tspan><tspan x="58.32" y="0" class="st39 st40 st38">o</tspan><tspan x="71.09" y="0" class="st39 st40 st38">r</tspan><tspan x="79.28" y="0" class="st39 st40 st38">y</tspan><tspan x="90.24" y="0" class="st39 st40 st38"> </tspan><tspan x="94.24" y="0" class="st39 st40 st38 st43">T</tspan><tspan x="104.34" y="0" class="st39 st40 st38">ax </tspan><tspan x="131.25" y="0" class="st39 st40 st38">F</tspan><tspan x="142" y="0" class="st39 st40 st38">iling</tspan></text>
<text transform="matrix(1 0 0 1 14.7346 537.4963)"><tspan x="0" y="0" class="st39 st40 st38">M</tspan><tspan x="18.84" y="0" class="st39 st40 st38">o</tspan><tspan x="31.61" y="0" class="st39 st40 st38">n</tspan><tspan x="44.46" y="0" class="st39 st40 st38">thly </tspan><tspan x="86.45" y="0" class="st39 st40 st38">F</tspan><tspan x="97.19" y="0" class="st39 st40 st38">inancial </tspan></text>
<text transform="matrix(1 0 0 1 14.7346 568.5066)"><tspan x="0" y="0" class="st39 st40 st38">S</tspan><tspan x="11.4" y="0" class="st39 st40 st38">t</tspan><tspan x="19.1" y="0" class="st39 st40 st38">a</tspan><tspan x="30.22" y="0" class="st39 st40 st38">t</tspan><tspan x="37.78" y="0" class="st39 st40 st38">eme</tspan><tspan x="80.49" y="0" class="st39 st40 st38">n</tspan><tspan x="93.31" y="0" class="st39 st40 st38">ts</tspan></text>
<path class="st39" d="M16.5,607.05c0.88-0.19,2.28-0.33,3.7-0.33c2.02,0,3.33,0.35,4.3,1.14c0.81,0.61,1.3,1.54,1.3,2.77
	c0,1.51-1,2.84-2.65,3.44v0.05c1.49,0.37,3.23,1.61,3.23,3.93c0,1.35-0.54,2.37-1.33,3.14c-1.09,1-2.86,1.47-5.42,1.47
	c-1.4,0-2.47-0.09-3.14-0.19V607.05z M18.53,613.47h1.84c2.14,0,3.4-1.12,3.4-2.63c0-1.84-1.4-2.56-3.44-2.56
	c-0.93,0-1.47,0.07-1.79,0.14V613.47z M18.53,620.99c0.4,0.07,0.98,0.09,1.7,0.09c2.09,0,4.03-0.77,4.03-3.05
	c0-2.14-1.84-3.03-4.05-3.03h-1.68V620.99z M35.28,622.52l-0.16-1.42h-0.07c-0.63,0.88-1.84,1.68-3.44,1.68
	c-2.28,0-3.44-1.61-3.44-3.23c0-2.72,2.42-4.21,6.77-4.19v-0.23c0-0.93-0.26-2.61-2.56-2.61c-1.05,0-2.14,0.33-2.93,0.84l-0.47-1.35
	c0.93-0.6,2.28-1,3.7-1c3.44,0,4.28,2.35,4.28,4.61v4.21c0,0.98,0.05,1.93,0.19,2.7H35.28z M34.98,616.78
	c-2.23-0.05-4.77,0.35-4.77,2.54c0,1.33,0.88,1.95,1.93,1.95c1.47,0,2.4-0.93,2.72-1.88c0.07-0.21,0.12-0.44,0.12-0.65V616.78z
	 M40.26,614.31c0-1.16-0.02-2.12-0.09-3.05h1.82l0.12,1.86h0.05c0.56-1.07,1.86-2.12,3.72-2.12c1.56,0,3.98,0.93,3.98,4.79v6.72
	h-2.05v-6.49c0-1.82-0.67-3.33-2.61-3.33c-1.35,0-2.4,0.95-2.75,2.09c-0.09,0.26-0.14,0.6-0.14,0.95v6.77h-2.05V614.31z
	 M55.19,616.43h0.05c0.28-0.4,0.67-0.88,1-1.28l3.3-3.89h2.47l-4.35,4.63l4.96,6.63h-2.49l-3.89-5.4l-1.05,1.16v4.24h-2.02V606h2.02
	V616.43z M75.24,622.52l-0.16-1.42h-0.07c-0.63,0.88-1.84,1.68-3.44,1.68c-2.28,0-3.44-1.61-3.44-3.23c0-2.72,2.42-4.21,6.77-4.19
	v-0.23c0-0.93-0.26-2.61-2.56-2.61c-1.05,0-2.14,0.33-2.93,0.84l-0.47-1.35c0.93-0.6,2.28-1,3.7-1c3.44,0,4.28,2.35,4.28,4.61v4.21
	c0,0.98,0.05,1.93,0.19,2.7H75.24z M74.94,616.78c-2.23-0.05-4.77,0.35-4.77,2.54c0,1.33,0.88,1.95,1.93,1.95
	c1.47,0,2.4-0.93,2.72-1.88c0.07-0.21,0.12-0.44,0.12-0.65V616.78z M80.22,614.31c0-1.16-0.02-2.12-0.09-3.05h1.82l0.12,1.86h0.05
	c0.56-1.07,1.86-2.12,3.72-2.12c1.56,0,3.98,0.93,3.98,4.79v6.72h-2.05v-6.49c0-1.82-0.67-3.33-2.61-3.33
	c-1.35,0-2.4,0.95-2.75,2.09c-0.09,0.26-0.14,0.6-0.14,0.95v6.77h-2.05V614.31z M102.86,606v13.61c0,1,0.02,2.14,0.09,2.91h-1.84
	l-0.09-1.95h-0.05c-0.63,1.26-2,2.21-3.84,2.21c-2.72,0-4.82-2.3-4.82-5.72c-0.02-3.75,2.3-6.05,5.05-6.05
	c1.72,0,2.89,0.81,3.4,1.72h0.05V606H102.86z M100.81,615.85c0-0.26-0.02-0.61-0.09-0.86c-0.3-1.3-1.42-2.37-2.96-2.37
	c-2.12,0-3.37,1.86-3.37,4.35c0,2.28,1.12,4.17,3.33,4.17c1.37,0,2.63-0.91,3-2.44c0.07-0.28,0.09-0.56,0.09-0.88V615.85z
	 M113.28,608.56h-4.77v-1.72h11.61v1.72h-4.79v13.96h-2.05V608.56z M126.54,622.52l-0.16-1.42h-0.07c-0.63,0.88-1.84,1.68-3.44,1.68
	c-2.28,0-3.44-1.61-3.44-3.23c0-2.72,2.42-4.21,6.77-4.19v-0.23c0-0.93-0.26-2.61-2.56-2.61c-1.05,0-2.14,0.33-2.93,0.84l-0.47-1.35
	c0.93-0.6,2.28-1,3.7-1c3.44,0,4.28,2.35,4.28,4.61v4.21c0,0.98,0.05,1.93,0.19,2.7H126.54z M126.24,616.78
	c-2.23-0.05-4.77,0.35-4.77,2.54c0,1.33,0.88,1.95,1.93,1.95c1.47,0,2.4-0.93,2.72-1.88c0.07-0.21,0.12-0.44,0.12-0.65V616.78z
	 M132.47,611.26l1.61,2.42c0.42,0.63,0.77,1.21,1.14,1.84h0.07c0.37-0.67,0.74-1.26,1.12-1.86l1.58-2.4h2.21l-3.84,5.45l3.96,5.82
	h-2.33l-1.65-2.54c-0.44-0.65-0.81-1.28-1.21-1.95h-0.05c-0.37,0.67-0.77,1.28-1.19,1.95l-1.63,2.54h-2.26l4-5.75l-3.82-5.52H132.47
	z M160.7,614.52c0,5.4-3.28,8.26-7.28,8.26c-4.14,0-7.05-3.21-7.05-7.96c0-4.98,3.09-8.24,7.28-8.24
	C157.93,606.58,160.7,609.87,160.7,614.52z M148.53,614.78c0,3.35,1.82,6.35,5,6.35c3.21,0,5.03-2.96,5.03-6.52
	c0-3.12-1.63-6.38-5-6.38C150.2,608.24,148.53,611.33,148.53,614.78z M177.72,608c-0.51-0.33-1.35-0.6-2.28-0.6
	c-2.16,0-2.82,1.51-2.82,3.3v0.56h6.56v11.26h-2.05v-9.7h-4.49v9.7h-2.05v-9.7h-4.75v9.7h-2.02v-9.7h-1.58v-1.56h1.58v-0.42
	c0-1.42,0.37-2.79,1.35-3.75c0.65-0.67,1.63-1.09,2.89-1.09c0.77,0,1.56,0.28,1.98,0.49l-0.56,1.51c-0.35-0.19-0.88-0.4-1.42-0.4
	c-0.65,0-1.12,0.23-1.47,0.61c-0.56,0.6-0.74,1.63-0.74,2.61v0.44h4.75v-0.6c0-2.98,1.77-4.91,4.93-4.91c1.02,0,2.19,0.3,2.79,0.72
	L177.72,608z M190.61,622.11c-0.54,0.28-1.72,0.65-3.23,0.65c-3.4,0-5.61-2.3-5.61-5.75c0-3.47,2.37-5.98,6.05-5.98
	c1.21,0,2.28,0.3,2.84,0.58l-0.47,1.58c-0.49-0.28-1.26-0.54-2.37-0.54c-2.58,0-3.98,1.91-3.98,4.26c0,2.61,1.68,4.21,3.91,4.21
	c1.16,0,1.93-0.3,2.51-0.56L190.61,622.11z M194.01,617.27c0.05,2.77,1.82,3.91,3.86,3.91c1.47,0,2.35-0.26,3.12-0.58l0.35,1.47
	c-0.72,0.33-1.95,0.7-3.75,0.7c-3.47,0-5.54-2.28-5.54-5.68s2-6.07,5.28-6.07c3.68,0,4.65,3.23,4.65,5.31
	c0,0.42-0.05,0.74-0.07,0.95H194.01z M200.01,615.8c0.02-1.3-0.54-3.33-2.84-3.33c-2.07,0-2.98,1.91-3.14,3.33H200.01z"/>
<text transform="matrix(1 0 0 1 14.7346 653.5349)"><tspan x="0" y="0" class="st39 st40 st38">R</tspan><tspan x="12.59" y="0" class="st39 st40 st38">el</tspan><tspan x="29.73" y="0" class="st39 st40 st38">a</tspan><tspan x="40.85" y="0" class="st39 st40 st38">tionships</tspan></text>
<text transform="matrix(1 0 0 1 14.7346 711.7166)"><tspan x="0" y="0" class="st39 st40 st38">V</tspan><tspan x="12.63" y="0" class="st39 st40 st38">i</tspan><tspan x="18.08" y="0" class="st39 st40 st38">r</tspan><tspan x="26.24" y="0" class="st39 st40 st38">tual </tspan><tspan x="68.39" y="0" class="st39 st40 st38">M</tspan><tspan x="87.24" y="0" class="st39 st40 st38">eetings</tspan></text>
<text transform="matrix(1 0 0 1 534.7199 711.7166)"><tspan x="0" y="0" class="st39 st41 st38">    Once </tspan><tspan x="75.67" y="0" class="st39 st41 st38">M</tspan><tspan x="94.56" y="0" class="st39 st41 st38">onthly</tspan></text>
<text transform="matrix(1 0 0 1 769.1926 711.7166)"><tspan x="0" y="0" class="st39 st41 st38">     </tspan><tspan x="24.66" y="0" class="st39 st41 st38"> </tspan><tspan x="28.61" y="0" class="st39 st41 st38">T</tspan><tspan x="39.41" y="0" class="st39 st41 st38">wice </tspan><tspan x="88.98" y="0" class="st39 st41 st38">M</tspan><tspan x="107.85" y="0" class="st39 st41 st38">onthly</tspan></text>
<text transform="matrix(1 0 0 1 1028.092 711.7166)"><tspan x="0" y="0" class="st39 st41 st38">     Once</tspan><tspan x="75.67" y="0" class="st39 st41 st38"> </tspan><tspan x="79.82" y="0" class="st39 st41 st38">W</tspan><tspan x="98.92" y="0" class="st39 st41 st38">ee</tspan><tspan x="122.23" y="0" class="st39 st41 st38">k</tspan><tspan x="133.65" y="0" class="st39 st41 st38">ly</tspan></text>
<text transform="matrix(1 0 0 1 14.7575 769.8987)"><tspan x="0" y="0" class="st39 st40 st38">Expense </tspan><tspan x="85.82" y="0" class="st39 st40 st38">M</tspan><tspan x="104.66" y="0" class="st39 st40 st38">anageme</tspan><tspan x="195.71" y="0" class="st39 st40 st38">n</tspan><tspan x="208.55" y="0" class="st39 st40 st38">t </tspan></text>
<text transform="matrix(1 0 0 1 14.7575 800.9089)"><tspan x="0" y="0" class="st39 st40 st38">S</tspan><tspan x="11.58" y="0" class="st39 st40 st38">o</tspan><tspan x="24.36" y="0" class="st39 st40 st38">f</tspan><tspan x="31.41" y="0" class="st39 st40 st38">t</tspan><tspan x="39.29" y="0" class="st39 st40 st38">w</tspan><tspan x="56.34" y="0" class="st39 st40 st38">a</tspan><tspan x="67.56" y="0" class="st39 st40 st38">r</tspan><tspan x="74.95" y="0" class="st39 st40 st38">e  </tspan></text>
<path class="st39" d="M24.65,847.57h-6.1v5.65h6.79v1.7h-8.82v-15.68H25v1.7h-6.45v4.96h6.1V847.57z M27.97,839.45
	c1.02-0.21,2.49-0.33,3.89-0.33c2.16,0,3.56,0.4,4.54,1.28c0.79,0.7,1.23,1.77,1.23,2.98c0,2.07-1.3,3.44-2.96,4v0.07
	c1.21,0.42,1.93,1.54,2.3,3.16c0.51,2.19,0.88,3.7,1.21,4.3h-2.09c-0.26-0.44-0.61-1.79-1.05-3.75c-0.47-2.16-1.3-2.98-3.14-3.05H30
	v6.79h-2.02V839.45z M30,846.6h2.07c2.16,0,3.54-1.19,3.54-2.98c0-2.02-1.47-2.91-3.61-2.93c-0.98,0-1.68,0.09-2,0.19V846.6z
	 M40.49,839.43c0.98-0.16,2.26-0.3,3.89-0.3c2,0,3.47,0.47,4.4,1.3c0.86,0.74,1.37,1.88,1.37,3.28c0,1.42-0.42,2.54-1.21,3.35
	c-1.07,1.14-2.82,1.72-4.79,1.72c-0.61,0-1.16-0.02-1.63-0.14v6.28h-2.02V839.43z M42.51,846.99c0.44,0.12,1,0.16,1.68,0.16
	c2.44,0,3.93-1.19,3.93-3.35c0-2.07-1.47-3.07-3.7-3.07c-0.88,0-1.56,0.07-1.91,0.16V846.99z M57.52,852.46
	c0.91,0.56,2.23,1.02,3.63,1.02c2.07,0,3.28-1.09,3.28-2.68c0-1.47-0.84-2.3-2.96-3.12c-2.56-0.91-4.14-2.23-4.14-4.44
	c0-2.44,2.02-4.26,5.07-4.26c1.61,0,2.77,0.37,3.47,0.77l-0.56,1.65c-0.51-0.28-1.56-0.74-2.98-0.74c-2.14,0-2.96,1.28-2.96,2.35
	c0,1.47,0.95,2.19,3.12,3.03c2.65,1.02,4,2.3,4,4.61c0,2.42-1.79,4.51-5.49,4.51c-1.51,0-3.16-0.44-4-1L57.52,852.46z M69.75,843.66
	l2.47,6.66c0.26,0.74,0.54,1.63,0.72,2.3h0.05c0.21-0.67,0.44-1.54,0.72-2.35l2.23-6.61h2.16l-3.07,8.03
	c-1.47,3.86-2.47,5.84-3.86,7.05c-1,0.88-2,1.23-2.51,1.33l-0.51-1.72c0.51-0.16,1.19-0.49,1.79-1c0.56-0.44,1.26-1.23,1.72-2.28
	c0.09-0.21,0.16-0.37,0.16-0.49c0-0.12-0.05-0.28-0.14-0.54l-4.17-10.38H69.75z M79.55,852.83c0.61,0.4,1.68,0.81,2.7,0.81
	c1.49,0,2.19-0.74,2.19-1.68c0-0.98-0.58-1.51-2.09-2.07c-2.02-0.72-2.98-1.84-2.98-3.19c0-1.82,1.47-3.3,3.89-3.3
	c1.14,0,2.14,0.33,2.77,0.7l-0.51,1.49c-0.44-0.28-1.26-0.65-2.3-0.65c-1.21,0-1.88,0.7-1.88,1.54c0,0.93,0.67,1.35,2.14,1.91
	c1.95,0.74,2.96,1.72,2.96,3.4c0,1.98-1.54,3.37-4.21,3.37c-1.23,0-2.37-0.3-3.16-0.77L79.55,852.83z M91.5,840.43v3.23h2.93v1.56
	H91.5v6.07c0,1.4,0.4,2.19,1.54,2.19c0.54,0,0.93-0.07,1.19-0.14l0.09,1.54c-0.4,0.16-1.02,0.28-1.82,0.28
	c-0.95,0-1.72-0.3-2.21-0.86c-0.58-0.6-0.79-1.61-0.79-2.93v-6.14h-1.75v-1.56h1.75v-2.7L91.5,840.43z M97.74,849.67
	c0.05,2.77,1.82,3.91,3.86,3.91c1.47,0,2.35-0.26,3.12-0.58l0.35,1.47c-0.72,0.33-1.95,0.7-3.75,0.7c-3.47,0-5.54-2.28-5.54-5.68
	c0-3.4,2-6.07,5.28-6.07c3.68,0,4.65,3.23,4.65,5.31c0,0.42-0.05,0.74-0.07,0.95H97.74z M103.74,848.2c0.02-1.3-0.54-3.33-2.84-3.33
	c-2.07,0-2.98,1.91-3.14,3.33H103.74z M108.25,846.71c0-1.16-0.02-2.12-0.09-3.05h1.79l0.09,1.82h0.07
	c0.63-1.07,1.68-2.07,3.54-2.07c1.54,0,2.7,0.93,3.19,2.26h0.05c0.35-0.63,0.79-1.12,1.26-1.47c0.67-0.51,1.42-0.79,2.49-0.79
	c1.49,0,3.7,0.98,3.7,4.89v6.63h-2v-6.38c0-2.16-0.79-3.47-2.44-3.47c-1.16,0-2.07,0.86-2.42,1.86c-0.09,0.28-0.16,0.65-0.16,1.02
	v6.96h-2v-6.75c0-1.79-0.79-3.09-2.35-3.09c-1.28,0-2.21,1.02-2.54,2.05c-0.12,0.3-0.16,0.65-0.16,1v6.79h-2V846.71z M143.62,854.41
	c-0.74,0.37-2.23,0.74-4.14,0.74c-4.42,0-7.75-2.79-7.75-7.93c0-4.91,3.33-8.24,8.19-8.24c1.95,0,3.19,0.42,3.72,0.7l-0.49,1.65
	c-0.77-0.37-1.86-0.65-3.16-0.65c-3.68,0-6.12,2.35-6.12,6.47c0,3.84,2.21,6.31,6.03,6.31c1.23,0,2.49-0.26,3.3-0.65L143.62,854.41z
	 M156.02,849.2c0,4.17-2.89,5.98-5.61,5.98c-3.05,0-5.4-2.23-5.4-5.79c0-3.77,2.47-5.98,5.58-5.98
	C153.83,843.41,156.02,845.76,156.02,849.2z M147.08,849.32c0,2.47,1.42,4.33,3.42,4.33c1.95,0,3.42-1.84,3.42-4.37
	c0-1.91-0.95-4.33-3.37-4.33S147.08,847.18,147.08,849.32z M158.6,846.71c0-1.16-0.02-2.12-0.09-3.05h1.82l0.12,1.86h0.05
	c0.56-1.07,1.86-2.12,3.72-2.12c1.56,0,3.98,0.93,3.98,4.79v6.72h-2.05v-6.49c0-1.82-0.67-3.33-2.61-3.33
	c-1.35,0-2.4,0.95-2.75,2.09c-0.09,0.26-0.14,0.61-0.14,0.95v6.77h-2.05V846.71z M171.72,854.93v-9.7h-1.58v-1.56h1.58v-0.61
	c0-2.98,1.75-4.91,4.91-4.91c1.05,0,2.28,0.33,2.86,0.74l-0.58,1.56c-0.49-0.35-1.37-0.65-2.37-0.65c-2.16,0-2.79,1.51-2.79,3.3
	v0.56h6.54v11.26h-2.02v-9.7h-4.51v9.7H171.72z M193.38,843.66c-0.05,0.81-0.09,1.72-0.09,3.09v6.54c0,2.58-0.51,4.17-1.61,5.14
	c-1.09,1.02-2.68,1.35-4.1,1.35c-1.35,0-2.84-0.33-3.75-0.93l0.51-1.56c0.74,0.47,1.91,0.88,3.3,0.88c2.09,0,3.63-1.09,3.63-3.93
	V853h-0.05c-0.63,1.05-1.84,1.88-3.58,1.88c-2.79,0-4.79-2.37-4.79-5.49c0-3.82,2.49-5.98,5.07-5.98c1.95,0,3.03,1.02,3.51,1.95
	h0.05l0.09-1.7H193.38z M191.26,848.11c0-0.35-0.02-0.65-0.12-0.93c-0.37-1.19-1.37-2.16-2.86-2.16c-1.95,0-3.35,1.65-3.35,4.26
	c0,2.21,1.12,4.05,3.33,4.05c1.26,0,2.4-0.79,2.84-2.09c0.12-0.35,0.16-0.74,0.16-1.09V848.11z M206.1,851.86
	c0,1.16,0.02,2.19,0.09,3.07h-1.82l-0.12-1.84h-0.05c-0.54,0.91-1.72,2.09-3.72,2.09c-1.77,0-3.89-0.98-3.89-4.93v-6.59h2.05v6.24
	c0,2.14,0.65,3.58,2.51,3.58c1.37,0,2.33-0.95,2.7-1.86c0.12-0.3,0.19-0.67,0.19-1.05v-6.91h2.05V851.86z M209.5,847.18
	c0-1.33-0.02-2.47-0.09-3.51h1.79l0.07,2.21h0.09c0.51-1.51,1.75-2.47,3.12-2.47c0.23,0,0.4,0.02,0.58,0.07v1.93
	c-0.21-0.05-0.42-0.07-0.7-0.07c-1.44,0-2.47,1.09-2.75,2.63c-0.05,0.28-0.09,0.61-0.09,0.95v6h-2.02V847.18z M223.22,854.93
	l-0.16-1.42h-0.07c-0.63,0.88-1.84,1.68-3.44,1.68c-2.28,0-3.44-1.61-3.44-3.23c0-2.72,2.42-4.21,6.77-4.19v-0.23
	c0-0.93-0.26-2.61-2.56-2.61c-1.05,0-2.14,0.33-2.93,0.84l-0.47-1.35c0.93-0.61,2.28-1,3.7-1c3.44,0,4.28,2.35,4.28,4.61v4.21
	c0,0.98,0.05,1.93,0.19,2.7H223.22z M222.92,849.18c-2.23-0.05-4.77,0.35-4.77,2.54c0,1.33,0.88,1.95,1.93,1.95
	c1.47,0,2.4-0.93,2.72-1.88c0.07-0.21,0.12-0.44,0.12-0.65V849.18z M230.57,840.43v3.23h2.93v1.56h-2.93v6.07
	c0,1.4,0.4,2.19,1.54,2.19c0.54,0,0.93-0.07,1.19-0.14l0.09,1.54c-0.4,0.16-1.02,0.28-1.82,0.28c-0.95,0-1.72-0.3-2.21-0.86
	c-0.58-0.6-0.79-1.61-0.79-2.93v-6.14h-1.75v-1.56h1.75v-2.7L230.57,840.43z M238.09,840.5c0.02,0.7-0.49,1.26-1.3,1.26
	c-0.72,0-1.23-0.56-1.23-1.26c0-0.72,0.54-1.28,1.28-1.28C237.6,839.22,238.09,839.78,238.09,840.5z M235.81,854.93v-11.26h2.05
	v11.26H235.81z M251.44,849.2c0,4.17-2.89,5.98-5.61,5.98c-3.05,0-5.4-2.23-5.4-5.79c0-3.77,2.47-5.98,5.58-5.98
	C249.26,843.41,251.44,845.76,251.44,849.2z M242.51,849.32c0,2.47,1.42,4.33,3.42,4.33c1.95,0,3.42-1.84,3.42-4.37
	c0-1.91-0.95-4.33-3.37-4.33S242.51,847.18,242.51,849.32z M254.02,846.71c0-1.16-0.02-2.12-0.09-3.05h1.82l0.12,1.86h0.05
	c0.56-1.07,1.86-2.12,3.72-2.12c1.56,0,3.98,0.93,3.98,4.79v6.72h-2.05v-6.49c0-1.82-0.67-3.33-2.61-3.33
	c-1.35,0-2.4,0.95-2.75,2.09c-0.09,0.26-0.14,0.61-0.14,0.95v6.77h-2.05V846.71z"/>
<text transform="matrix(1 0 0 1 14.7575 885.9373)"><tspan x="0" y="0" class="st39 st40 st38">/ </tspan><tspan x="12.91" y="0" class="st39 st40 st38">A</tspan><tspan x="26.87" y="0" class="st39 st40 st38">dviso</tspan><tspan x="78.61" y="0" class="st39 st40 st38">r</tspan><tspan x="86.77" y="0" class="st39 st40 st38">y</tspan></text>
<text transform="matrix(1 0 0 1 396.6584 871.5203)" class="st39 st44 st45">*</text>
<text transform="matrix(1 0 0 1 523.0558 944.2517)"><tspan x="0" y="0" class="st39 st36 st38">V</tspan><tspan x="12.49" y="0" class="st39 st36 st38">i</tspan><tspan x="17.94" y="0" class="st39 st36 st38">r</tspan><tspan x="26.08" y="0" class="st39 st36 st38">tual CFO </tspan><tspan x="114.01" y="0" class="st39 st36 st38">S</tspan><tspan x="125.6" y="0" class="st39 st36 st38">e</tspan><tspan x="137.25" y="0" class="st39 st36 st38">r</tspan><tspan x="145.37" y="0" class="st39 st36 st38">vi</tspan><tspan x="162.01" y="0" class="st39 st36 st38">c</tspan><tspan x="172.24" y="0" class="st39 st36 st38">es</tspan></text>
<text transform="matrix(1 0 0 1 14.655 1002.4333)"><tspan x="0" y="0" class="st39 st40 st38 st43">T</tspan><tspan x="10.07" y="0" class="st39 st40 st38">ax </tspan><tspan x="36.99" y="0" class="st39 st40 st38">P</tspan><tspan x="49.25" y="0" class="st39 st40 st38">lanning &amp; </tspan></text>
<text transform="matrix(1 0 0 1 14.655 1033.4436)"><tspan x="0" y="0" class="st39 st40 st38">Optimiz</tspan><tspan x="77.21" y="0" class="st39 st40 st38">a</tspan><tspan x="88.33" y="0" class="st39 st40 st38">tion</tspan></text>
<text transform="matrix(1 0 0 1 14.655 1091.6257)"><tspan x="0" y="0" class="st39 st40 st38 st43">T</tspan><tspan x="10.52" y="0" class="st39 st40 st38">r</tspan><tspan x="18.03" y="0" class="st39 st40 st38">ans</tspan><tspan x="51.37" y="0" class="st39 st40 st38">f</tspan><tspan x="57.88" y="0" class="st39 st40 st38">er </tspan><tspan x="82.07" y="0" class="st39 st40 st38">P</tspan><tspan x="94.08" y="0" class="st39 st40 st38">r</tspan><tspan x="101.78" y="0" class="st39 st40 st38">icing </tspan><tspan x="153.93" y="0" class="st39 st40 st38">A</tspan><tspan x="167.89" y="0" class="st39 st40 st38">dviso</tspan><tspan x="219.63" y="0" class="st39 st40 st38">r</tspan><tspan x="227.79" y="0" class="st39 st40 st38">y</tspan></text>
<text transform="matrix(1 0 0 1 14.655 1153.9954)"><tspan x="0" y="0" class="st39 st40 st38">A</tspan><tspan x="13.96" y="0" class="st39 st40 st38">udit </tspan><tspan x="57.97" y="0" class="st39 st40 st38">C</tspan><tspan x="71.23" y="0" class="st39 st40 st38">oo</tspan><tspan x="96.77" y="0" class="st39 st40 st38">r</tspan><tspan x="104.15" y="0" class="st39 st40 st38">din</tspan><tspan x="135.62" y="0" class="st39 st40 st38">a</tspan><tspan x="146.74" y="0" class="st39 st40 st38">tion</tspan><tspan x="185.57" y="0" class="st39 st40 st38"> </tspan><tspan x="189.69" y="0" class="st39 st40 st38">W</tspan><tspan x="208.6" y="0" class="st39 st40 st38">o</tspan><tspan x="221.37" y="0" class="st39 st40 st38">r</tspan><tspan x="229.05" y="0" class="st39 st40 st38">k</tspan></text>
<text transform="matrix(1 0 0 1 14.655 1216.3645)"><tspan x="0" y="0" class="st39 st40 st38">C</tspan><tspan x="13.35" y="0" class="st39 st40 st38">ash </tspan><tspan x="51.62" y="0" class="st39 st40 st38">F</tspan><tspan x="62.55" y="0" class="st39 st40 st38">l</tspan><tspan x="68.04" y="0" class="st39 st40 st38">o</tspan><tspan x="80.65" y="0" class="st39 st40 st38">w </tspan><tspan x="102.71" y="0" class="st39 st40 st38">F</tspan><tspan x="113.31" y="0" class="st39 st40 st38">o</tspan><tspan x="126.09" y="0" class="st39 st40 st38">r</tspan><tspan x="133.48" y="0" class="st39 st40 st38">ecasting</tspan></text>
<text transform="matrix(1 0 0 1 14.655 1274.5466)"><tspan x="0" y="0" class="st39 st40 st38">Budget </tspan><tspan x="75.84" y="0" class="st39 st40 st38">D</tspan><tspan x="91.42" y="0" class="st39 st40 st38">e</tspan><tspan x="103.08" y="0" class="st39 st40 st38">v</tspan><tspan x="114.06" y="0" class="st39 st40 st38">elopme</tspan><tspan x="188.27" y="0" class="st39 st40 st38">nt</tspan><tspan x="208.74" y="0" class="st39 st40 st38">, </tspan></text>
<text transform="matrix(1 0 0 1 14.655 1305.5569)"><tspan x="0" y="0" class="st39 st40 st38 st43">T</tspan><tspan x="10.52" y="0" class="st39 st40 st38">r</tspan><tspan x="18.03" y="0" class="st39 st40 st38">ac</tspan><tspan x="39.66" y="0" class="st39 st40 st38">k</tspan><tspan x="50.95" y="0" class="st39 st40 st38">ing &amp; </tspan><tspan x="106.24" y="0" class="st39 st40 st38">A</tspan><tspan x="120.41" y="0" class="st39 st40 st38">nal</tspan><tspan x="150.02" y="0" class="st39 st40 st38">y</tspan><tspan x="160.87" y="0" class="st39 st40 st38">sis</tspan></text>
<text transform="matrix(1 0 0 1 14.655 1359.575)"><tspan x="0" y="0" class="st39 st40 st38">I</tspan><tspan x="5.79" y="0" class="st39 st40 st38">n</tspan><tspan x="18.61" y="0" class="st39 st40 st38">t</tspan><tspan x="26.17" y="0" class="st39 st40 st38">e</tspan><tspan x="37.83" y="0" class="st39 st40 st38">r</tspan><tspan x="45.53" y="0" class="st39 st40 st38">nal </tspan><tspan x="80.07" y="0" class="st39 st40 st38">C</tspan><tspan x="93.33" y="0" class="st39 st40 st38">o</tspan><tspan x="106.1" y="0" class="st39 st40 st38">n</tspan><tspan x="118.92" y="0" class="st39 st40 st38">t</tspan><tspan x="126.62" y="0" class="st39 st40 st38">r</tspan><tspan x="134.02" y="0" class="st39 st40 st38">ol </tspan></text>
<text transform="matrix(1 0 0 1 14.655 1390.5847)"><tspan x="0" y="0" class="st39 st40 st38">S</tspan><tspan x="11.4" y="0" class="st39 st40 st38">tru</tspan><tspan x="39.52" y="0" class="st39 st40 st38">c</tspan><tspan x="50.25" y="0" class="st39 st40 st38">tu</tspan><tspan x="70.77" y="0" class="st39 st40 st38">r</tspan><tspan x="78.44" y="0" class="st39 st40 st38">ing</tspan></text>
<text transform="matrix(1 0 0 1 14.655 1444.6033)"><tspan x="0" y="0" class="st39 st40 st38">F</tspan><tspan x="10.75" y="0" class="st39 st40 st38">inancial </tspan><tspan x="90.73" y="0" class="st39 st40 st38">R</tspan><tspan x="103.31" y="0" class="st39 st40 st38">eview / </tspan></text>
<text transform="matrix(1 0 0 1 14.655 1475.613)"><tspan x="0" y="0" class="st39 st40 st38">Di</tspan><tspan x="20.94" y="0" class="st39 st40 st38">r</tspan><tspan x="28.31" y="0" class="st39 st40 st38">e</tspan><tspan x="39.97" y="0" class="st39 st40 st38">c</tspan><tspan x="50.67" y="0" class="st39 st40 st38">t</tspan><tspan x="58.25" y="0" class="st39 st40 st38">o</tspan><tspan x="71.02" y="0" class="st39 st40 st38">r</tspan><tspan x="79.33" y="0" class="st39 st40 st38 st43">’</tspan><tspan x="82.49" y="0" class="st39 st40 st38">s </tspan><tspan x="96.63" y="0" class="st39 st40 st38">M</tspan><tspan x="115.48" y="0" class="st39 st40 st38">eetings</tspan></text>
<text transform="matrix(1 0 0 1 769.09 1460.0964)"><tspan x="0" y="0" class="st39 st41 st38">      </tspan><tspan x="29.59" y="0" class="st39 st41 st38"> </tspan><tspan x="33.54" y="0" class="st39 st41 st38">T</tspan><tspan x="44.34" y="0" class="st39 st41 st38">wice Annual</tspan></text>
<text transform="matrix(1 0 0 1 1027.9905 1460.0964)"><tspan x="0" y="0" class="st39 st41 st38">        Qua</tspan><tspan x="79.51" y="0" class="st39 st41 st38">r</tspan><tspan x="87.7" y="0" class="st39 st41 st38">t</tspan><tspan x="95.29" y="0" class="st39 st41 st38">e</tspan><tspan x="106.94" y="0" class="st39 st41 st38">r</tspan><tspan x="114.73" y="0" class="st39 st41 st38">ly</tspan></text>
<text transform="matrix(1 0 0 1 14.655 1526.9558)"><tspan x="0" y="0" class="st39 st40 st38">R</tspan><tspan x="12.59" y="0" class="st39 st40 st38">ecruitme</tspan><tspan x="99.29" y="0" class="st39 st40 st38">n</tspan><tspan x="112.1" y="0" class="st39 st40 st38">t and </tspan></text>
<text transform="matrix(1 0 0 1 14.655 1557.9656)"><tspan x="0" y="0" class="st39 st40 st38">supe</tspan><tspan x="46.92" y="0" class="st39 st40 st38">r</tspan><tspan x="55.11" y="0" class="st39 st40 st38">vision of an </tspan></text>
<path class="st39" d="M18.63,1574.55c0.02,0.7-0.49,1.26-1.3,1.26c-0.72,0-1.23-0.56-1.23-1.26c0-0.72,0.54-1.28,1.28-1.28
	C18.15,1573.27,18.63,1573.83,18.63,1574.55z M16.35,1588.98v-11.26h2.05v11.26H16.35z M21.8,1580.76c0-1.16-0.02-2.12-0.09-3.05
	h1.82l0.12,1.86h0.05c0.56-1.07,1.86-2.12,3.72-2.12c1.56,0,3.98,0.93,3.98,4.79v6.72h-2.05v-6.49c0-1.82-0.67-3.33-2.61-3.33
	c-1.35,0-2.4,0.95-2.75,2.09c-0.09,0.26-0.14,0.6-0.14,0.95v6.77H21.8V1580.76z M37.08,1574.48v3.23h2.93v1.56h-2.93v6.07
	c0,1.4,0.4,2.19,1.54,2.19c0.54,0,0.93-0.07,1.19-0.14l0.09,1.54c-0.4,0.16-1.02,0.28-1.82,0.28c-0.95,0-1.72-0.3-2.21-0.86
	c-0.58-0.61-0.79-1.61-0.79-2.93v-6.14h-1.75v-1.56h1.75v-2.7L37.08,1574.48z M43.32,1583.72c0.05,2.77,1.82,3.91,3.86,3.91
	c1.47,0,2.35-0.26,3.12-0.58l0.35,1.47c-0.72,0.33-1.95,0.7-3.75,0.7c-3.47,0-5.54-2.28-5.54-5.68s2-6.07,5.28-6.07
	c3.68,0,4.65,3.23,4.65,5.31c0,0.42-0.05,0.74-0.07,0.95H43.32z M49.32,1582.25c0.02-1.3-0.54-3.33-2.84-3.33
	c-2.07,0-2.98,1.91-3.14,3.33H49.32z M53.83,1581.23c0-1.33-0.02-2.47-0.09-3.51h1.79l0.07,2.21h0.09c0.51-1.51,1.75-2.47,3.12-2.47
	c0.23,0,0.4,0.02,0.58,0.07v1.93c-0.21-0.05-0.42-0.07-0.7-0.07c-1.44,0-2.47,1.09-2.75,2.63c-0.05,0.28-0.09,0.6-0.09,0.95v6h-2.02
	V1581.23z M61.53,1580.76c0-1.16-0.02-2.12-0.09-3.05h1.82l0.12,1.86h0.05c0.56-1.07,1.86-2.12,3.72-2.12
	c1.56,0,3.98,0.93,3.98,4.79v6.72h-2.05v-6.49c0-1.82-0.67-3.33-2.61-3.33c-1.35,0-2.4,0.95-2.75,2.09
	c-0.09,0.26-0.14,0.6-0.14,0.95v6.77h-2.05V1580.76z M80.68,1588.98l-0.16-1.42h-0.07c-0.63,0.88-1.84,1.68-3.44,1.68
	c-2.28,0-3.44-1.61-3.44-3.23c0-2.72,2.42-4.21,6.77-4.19v-0.23c0-0.93-0.26-2.61-2.56-2.61c-1.05,0-2.14,0.33-2.93,0.84l-0.47-1.35
	c0.93-0.6,2.28-1,3.7-1c3.44,0,4.28,2.35,4.28,4.61v4.21c0,0.98,0.05,1.93,0.19,2.7H80.68z M80.38,1583.23
	c-2.23-0.05-4.77,0.35-4.77,2.54c0,1.33,0.88,1.95,1.93,1.95c1.47,0,2.4-0.93,2.72-1.88c0.07-0.21,0.12-0.44,0.12-0.65V1583.23z
	 M85.66,1572.45h2.05v16.52h-2.05V1572.45z M96.29,1588.98v-9.7H94.7v-1.56h1.58v-0.6c0-2.98,1.75-4.91,4.91-4.91
	c1.05,0,2.28,0.33,2.86,0.74l-0.58,1.56c-0.49-0.35-1.37-0.65-2.37-0.65c-2.16,0-2.79,1.51-2.79,3.3v0.56h6.54v11.26h-2.02v-9.7
	h-4.51v9.7H96.29z M108.24,1580.76c0-1.16-0.02-2.12-0.09-3.05h1.82l0.12,1.86h0.05c0.56-1.07,1.86-2.12,3.72-2.12
	c1.56,0,3.98,0.93,3.98,4.79v6.72h-2.05v-6.49c0-1.82-0.67-3.33-2.61-3.33c-1.35,0-2.4,0.95-2.75,2.09
	c-0.09,0.26-0.14,0.6-0.14,0.95v6.77h-2.05V1580.76z M127.39,1588.98l-0.16-1.42h-0.07c-0.63,0.88-1.84,1.68-3.44,1.68
	c-2.28,0-3.44-1.61-3.44-3.23c0-2.72,2.42-4.21,6.77-4.19v-0.23c0-0.93-0.26-2.61-2.56-2.61c-1.05,0-2.14,0.33-2.93,0.84l-0.47-1.35
	c0.93-0.6,2.28-1,3.7-1c3.44,0,4.28,2.35,4.28,4.61v4.21c0,0.98,0.05,1.93,0.19,2.7H127.39z M127.09,1583.23
	c-2.23-0.05-4.77,0.35-4.77,2.54c0,1.33,0.88,1.95,1.93,1.95c1.47,0,2.4-0.93,2.72-1.88c0.07-0.21,0.12-0.44,0.12-0.65V1583.23z
	 M132.37,1580.76c0-1.16-0.02-2.12-0.09-3.05h1.82l0.12,1.86h0.05c0.56-1.07,1.86-2.12,3.72-2.12c1.56,0,3.98,0.93,3.98,4.79v6.72
	h-2.05v-6.49c0-1.82-0.67-3.33-2.61-3.33c-1.35,0-2.4,0.95-2.75,2.09c-0.09,0.26-0.14,0.6-0.14,0.95v6.77h-2.05V1580.76z
	 M153.31,1588.56c-0.54,0.28-1.72,0.65-3.23,0.65c-3.4,0-5.61-2.3-5.61-5.75c0-3.47,2.37-5.98,6.05-5.98c1.21,0,2.28,0.3,2.84,0.58
	l-0.47,1.58c-0.49-0.28-1.26-0.54-2.37-0.54c-2.58,0-3.98,1.91-3.98,4.26c0,2.61,1.68,4.21,3.91,4.21c1.16,0,1.93-0.3,2.51-0.56
	L153.31,1588.56z M156.7,1583.72c0.05,2.77,1.82,3.91,3.86,3.91c1.47,0,2.35-0.26,3.12-0.58l0.35,1.47c-0.72,0.33-1.95,0.7-3.75,0.7
	c-3.47,0-5.54-2.28-5.54-5.68s2-6.07,5.28-6.07c3.68,0,4.65,3.23,4.65,5.31c0,0.42-0.05,0.74-0.07,0.95H156.7z M162.71,1582.25
	c0.02-1.3-0.54-3.33-2.84-3.33c-2.07,0-2.98,1.91-3.14,3.33H162.71z M174.62,1574.48v3.23h2.93v1.56h-2.93v6.07
	c0,1.4,0.4,2.19,1.54,2.19c0.54,0,0.93-0.07,1.19-0.14l0.09,1.54c-0.4,0.16-1.02,0.28-1.82,0.28c-0.95,0-1.72-0.3-2.21-0.86
	c-0.58-0.61-0.79-1.61-0.79-2.93v-6.14h-1.75v-1.56h1.75v-2.7L174.62,1574.48z M180.85,1583.72c0.05,2.77,1.82,3.91,3.86,3.91
	c1.47,0,2.35-0.26,3.12-0.58l0.35,1.47c-0.72,0.33-1.95,0.7-3.75,0.7c-3.47,0-5.54-2.28-5.54-5.68s2-6.07,5.28-6.07
	c3.68,0,4.65,3.23,4.65,5.31c0,0.42-0.05,0.74-0.07,0.95H180.85z M186.85,1582.25c0.02-1.3-0.54-3.33-2.84-3.33
	c-2.07,0-2.98,1.91-3.14,3.33H186.85z M197.6,1588.98l-0.16-1.42h-0.07c-0.63,0.88-1.84,1.68-3.44,1.68c-2.28,0-3.44-1.61-3.44-3.23
	c0-2.72,2.42-4.21,6.77-4.19v-0.23c0-0.93-0.26-2.61-2.56-2.61c-1.05,0-2.14,0.33-2.93,0.84l-0.47-1.35c0.93-0.6,2.28-1,3.7-1
	c3.44,0,4.28,2.35,4.28,4.61v4.21c0,0.98,0.05,1.93,0.19,2.7H197.6z M197.3,1583.23c-2.23-0.05-4.77,0.35-4.77,2.54
	c0,1.33,0.88,1.95,1.93,1.95c1.47,0,2.4-0.93,2.72-1.88c0.07-0.21,0.12-0.44,0.12-0.65V1583.23z M202.58,1580.76
	c0-1.16-0.02-2.12-0.09-3.05h1.79l0.09,1.82h0.07c0.63-1.07,1.68-2.07,3.54-2.07c1.54,0,2.7,0.93,3.19,2.26h0.05
	c0.35-0.63,0.79-1.12,1.26-1.47c0.67-0.51,1.42-0.79,2.49-0.79c1.49,0,3.7,0.98,3.7,4.89v6.63h-2v-6.38c0-2.16-0.79-3.47-2.44-3.47
	c-1.16,0-2.07,0.86-2.42,1.86c-0.09,0.28-0.16,0.65-0.16,1.02v6.96h-2v-6.75c0-1.79-0.79-3.09-2.35-3.09
	c-1.28,0-2.21,1.02-2.54,2.05c-0.12,0.3-0.16,0.65-0.16,1v6.79h-2V1580.76z"/>
<g>
	<defs>
		<rect id="SVGID_63_" x="0" width="1250" height="1747.49"/>
	</defs>
	<clipPath id="SVGID_64_">
		<use xlink:href="#SVGID_63_"  style="overflow:visible;"/>
	</clipPath>
	<path class="st46" d="M11.13,1654.27c5.5,0,9.97-4.46,9.97-9.97c0-5.5-4.46-9.97-9.97-9.97s-9.97,4.46-9.97,9.97
		C1.16,1649.81,5.62,1654.27,11.13,1654.27z"/>
</g>
<text transform="matrix(1 0 0 1 22.258 1654.4363)" class="st39 st47 st38">  </text>
<text transform="matrix(1 0 0 1 30.6325 1654.4363)"><tspan x="0" y="0" class="st39 st47 st38">A</tspan><tspan x="14.05" y="0" class="st39 st47 st38">dditional empl</tspan><tspan x="155.98" y="0" class="st39 st47 st38">oy</tspan><tspan x="179.43" y="0" class="st39 st47 st38">ees may be added at additional </tspan><tspan x="487.57" y="0" class="st39 st47 st38">c</tspan><tspan x="497.81" y="0" class="st39 st47 st38">ost</tspan></text>
<g>
	<defs>
		<rect id="SVGID_65_" x="0" width="1250" height="1747.49"/>
	</defs>
	<clipPath id="SVGID_66_">
		<use xlink:href="#SVGID_65_"  style="overflow:visible;"/>
	</clipPath>
	<path class="st48" d="M11.13,1685.98c5.5,0,9.97-4.46,9.97-9.97c0-5.5-4.46-9.96-9.97-9.96s-9.97,4.46-9.97,9.96
		C1.16,1681.52,5.62,1685.98,11.13,1685.98z"/>
</g>
<text transform="matrix(1 0 0 1 22.258 1685.4539)"><tspan x="0" y="0" class="st39 st47 st38">  </tspan><tspan x="9.86" y="0" class="st39 st47 st38">A</tspan><tspan x="23.73" y="0" class="st39 st47 st38">v</tspan><tspan x="34.62" y="0" class="st39 st47 st38">ailable at additional </tspan><tspan x="230.49" y="0" class="st39 st47 st38">c</tspan><tspan x="240.73" y="0" class="st39 st47 st38">ost upon </tspan><tspan x="332.01" y="0" class="st39 st47 st38">r</tspan><tspan x="339.46" y="0" class="st39 st47 st38">equest</tspan></text>
<g>
	<defs>
		<rect id="SVGID_67_" x="0" width="1250" height="1747.49"/>
	</defs>
	<clipPath id="SVGID_68_">
		<use xlink:href="#SVGID_67_"  style="overflow:visible;"/>
	</clipPath>
	<path class="st49" d="M11.13,1717.31c5.5,0,9.97-4.46,9.97-9.97c0-5.5-4.46-9.97-9.97-9.97s-9.97,4.46-9.97,9.97
		C1.16,1712.85,5.62,1717.31,11.13,1717.31z"/>
</g>
<text transform="matrix(1 0 0 1 22.258 1716.4724)"><tspan x="0" y="0" class="st39 st47 st38">  Standa</tspan><tspan x="77.49" y="0" class="st39 st47 st38">r</tspan><tspan x="84.93" y="0" class="st39 st47 st38">d 90 mi</tspan><tspan x="156.63" y="0" class="st39 st47 st38">n</tspan><tspan x="169.49" y="0" class="st39 st47 st38">u</tspan><tspan x="182.31" y="0" class="st39 st47 st38">t</tspan><tspan x="189.97" y="0" class="st39 st47 st38">es include</tspan><tspan x="287.63" y="0" class="st39 st47 st38">d</tspan><tspan x="300.35" y="0" class="st39 st47 st38">. Mo</tspan><tspan x="341.57" y="0" class="st39 st47 st38">r</tspan><tspan x="349.02" y="0" class="st39 st47 st38">e time a</tspan><tspan x="425.95" y="0" class="st39 st47 st38">v</tspan><tspan x="436.83" y="0" class="st39 st47 st38">ailable upon </tspan><tspan x="562.18" y="0" class="st39 st47 st38">r</tspan><tspan x="569.62" y="0" class="st39 st47 st38">equest</tspan></text>
<g>
	<defs>
		<rect id="SVGID_69_" x="0" width="1250" height="1747.49"/>
	</defs>
	<clipPath id="SVGID_70_">
		<use xlink:href="#SVGID_69_"  style="overflow:visible;"/>
	</clipPath>
	<path class="st50" d="M1129.09,291.93c-0.22,0.22-0.52,0.34-0.82,0.34c-0.31,0-0.6-0.12-0.82-0.34l-6.58-6.58
		c-0.68-0.68-0.68-1.79,0-2.47l0.82-0.82c0.68-0.68,1.79-0.68,2.47,0l4.11,4.11l11.1-11.1c0.68-0.68,1.79-0.68,2.47,0l0.82,0.82
		c0.68,0.68,0.68,1.79,0,2.47L1129.09,291.93z"/>
	<path class="st50" d="M1129.09,421.09c-0.22,0.22-0.52,0.34-0.82,0.34c-0.31,0-0.6-0.12-0.82-0.34l-6.58-6.58
		c-0.68-0.68-0.68-1.79,0-2.47l0.82-0.82c0.68-0.68,1.79-0.68,2.47,0l4.11,4.11l11.1-11.1c0.68-0.68,1.79-0.68,2.47,0l0.82,0.82
		c0.68,0.68,0.68,1.79,0,2.47L1129.09,421.09z"/>
	<path class="st50" d="M877.96,421.09c-0.22,0.22-0.52,0.34-0.82,0.34c-0.31,0-0.6-0.12-0.82-0.34l-6.58-6.58
		c-0.68-0.68-0.68-1.79,0-2.47l0.82-0.82c0.68-0.68,1.79-0.68,2.47,0l4.11,4.11l11.1-11.1c0.68-0.68,1.79-0.68,2.47,0l0.82,0.82
		c0.68,0.68,0.68,1.79,0,2.47L877.96,421.09z"/>
	<path class="st50" d="M631.52,421.09c-0.22,0.22-0.52,0.34-0.82,0.34c-0.31,0-0.6-0.12-0.82-0.34l-6.58-6.58
		c-0.68-0.68-0.68-1.79,0-2.47l0.82-0.82c0.68-0.68,1.79-0.68,2.47,0l4.11,4.11l11.1-11.1c0.68-0.68,1.79-0.68,2.47,0l0.82,0.82
		c0.68,0.68,0.68,1.79,0,2.47L631.52,421.09z"/>
	<path class="st50" d="M403.07,421.1c-0.21,0.22-0.51,0.33-0.81,0.33c-0.3,0-0.59-0.12-0.81-0.33l-6.45-6.45
		c-0.67-0.67-0.67-1.75,0-2.42l0.81-0.81c0.67-0.67,1.75-0.67,2.42,0l4.02,4.02l10.88-10.88c0.67-0.67,1.75-0.67,2.42,0l0.81,0.81
		c0.67,0.67,0.67,1.75,0,2.42L403.07,421.1z"/>
	<path class="st50" d="M1129.09,480.75c-0.22,0.22-0.52,0.34-0.82,0.34c-0.31,0-0.6-0.12-0.82-0.34l-6.58-6.58
		c-0.68-0.68-0.68-1.79,0-2.47l0.82-0.82c0.68-0.68,1.79-0.68,2.47,0l4.11,4.11l11.1-11.1c0.68-0.68,1.79-0.68,2.47,0l0.82,0.82
		c0.68,0.68,0.68,1.79,0,2.47L1129.09,480.75z"/>
	<path class="st50" d="M1129.09,1021.78c-0.22,0.22-0.52,0.34-0.82,0.34c-0.31,0-0.6-0.12-0.82-0.34l-6.58-6.58
		c-0.68-0.68-0.68-1.79,0-2.47l0.82-0.82c0.68-0.68,1.79-0.68,2.47,0l4.11,4.11l11.1-11.1c0.68-0.68,1.79-0.68,2.47,0l0.82,0.82
		c0.68,0.68,0.68,1.79,0,2.47L1129.09,1021.78z"/>
	<path class="st50" d="M1129.09,1152.29c-0.22,0.22-0.52,0.34-0.82,0.34c-0.31,0-0.6-0.12-0.82-0.34l-6.58-6.58
		c-0.68-0.68-0.68-1.79,0-2.47l0.82-0.82c0.68-0.68,1.79-0.68,2.47,0l4.11,4.11l11.1-11.1c0.68-0.68,1.79-0.68,2.47,0l0.82,0.82
		c0.68,0.68,0.68,1.79,0,2.47L1129.09,1152.29z"/>
	<path class="st50" d="M1129.09,1218.93c-0.22,0.22-0.52,0.34-0.82,0.34c-0.31,0-0.6-0.12-0.82-0.34l-6.58-6.58
		c-0.68-0.68-0.68-1.79,0-2.47l0.82-0.82c0.68-0.68,1.79-0.68,2.47,0l4.11,4.11l11.1-11.1c0.68-0.68,1.79-0.68,2.47,0l0.82,0.82
		c0.68,0.68,0.68,1.79,0,2.47L1129.09,1218.93z"/>
	<path class="st50" d="M1129.09,1286.8c-0.22,0.22-0.52,0.34-0.82,0.34c-0.31,0-0.6-0.12-0.82-0.34l-6.58-6.58
		c-0.68-0.68-0.68-1.79,0-2.47l0.82-0.82c0.68-0.68,1.79-0.68,2.47,0l4.11,4.11l11.1-11.1c0.68-0.68,1.79-0.68,2.47,0l0.82,0.82
		c0.68,0.68,0.68,1.79,0,2.47L1129.09,1286.8z"/>
	<path class="st50" d="M1129.09,1376.56c-0.22,0.22-0.52,0.34-0.82,0.34c-0.31,0-0.6-0.12-0.82-0.34l-6.58-6.58
		c-0.68-0.68-0.68-1.79,0-2.47l0.82-0.82c0.68-0.68,1.79-0.68,2.47,0l4.11,4.11l11.1-11.1c0.68-0.68,1.79-0.68,2.47,0l0.82,0.82
		c0.68,0.68,0.68,1.79,0,2.47L1129.09,1376.56z"/>
	<path class="st50" d="M1129.09,1556.59c-0.22,0.22-0.52,0.34-0.82,0.34c-0.31,0-0.6-0.12-0.82-0.34l-6.58-6.58
		c-0.68-0.68-0.68-1.79,0-2.47l0.82-0.82c0.68-0.68,1.79-0.68,2.47,0l4.11,4.11l11.1-11.1c0.68-0.68,1.79-0.68,2.47,0l0.82,0.82
		c0.68,0.68,0.68,1.79,0,2.47L1129.09,1556.59z"/>
	<path class="st50" d="M1129.09,1098.07c-0.22,0.22-0.52,0.34-0.82,0.34c-0.31,0-0.6-0.12-0.82-0.34l-6.58-6.58
		c-0.68-0.68-0.68-1.79,0-2.47l0.82-0.82c0.68-0.68,1.79-0.68,2.47,0l4.11,4.11l11.1-11.1c0.68-0.68,1.79-0.68,2.47,0l0.82,0.82
		c0.68,0.68,0.68,1.79,0,2.47L1129.09,1098.07z"/>
	<path class="st50" d="M877.96,480.75c-0.22,0.22-0.52,0.34-0.82,0.34c-0.31,0-0.6-0.12-0.82-0.34l-6.58-6.58
		c-0.68-0.68-0.68-1.79,0-2.47l0.82-0.82c0.68-0.68,1.79-0.68,2.47,0l4.11,4.11l11.1-11.1c0.68-0.68,1.79-0.68,2.47,0l0.82,0.82
		c0.68,0.68,0.68,1.79,0,2.47L877.96,480.75z"/>
	<path class="st50" d="M877.96,1021.78c-0.22,0.22-0.52,0.34-0.82,0.34c-0.31,0-0.6-0.12-0.82-0.34l-6.58-6.58
		c-0.68-0.68-0.68-1.79,0-2.47l0.82-0.82c0.68-0.68,1.79-0.68,2.47,0l4.11,4.11l11.1-11.1c0.68-0.68,1.79-0.68,2.47,0l0.82,0.82
		c0.68,0.68,0.68,1.79,0,2.47L877.96,1021.78z"/>
	<path class="st50" d="M877.96,1152.29c-0.22,0.22-0.52,0.34-0.82,0.34c-0.31,0-0.6-0.12-0.82-0.34l-6.58-6.58
		c-0.68-0.68-0.68-1.79,0-2.47l0.82-0.82c0.68-0.68,1.79-0.68,2.47,0l4.11,4.11l11.1-11.1c0.68-0.68,1.79-0.68,2.47,0l0.82,0.82
		c0.68,0.68,0.68,1.79,0,2.47L877.96,1152.29z"/>
	<path class="st50" d="M877.96,1218.93c-0.22,0.22-0.52,0.34-0.82,0.34c-0.31,0-0.6-0.12-0.82-0.34l-6.58-6.58
		c-0.68-0.68-0.68-1.79,0-2.47l0.82-0.82c0.68-0.68,1.79-0.68,2.47,0l4.11,4.11l11.1-11.1c0.68-0.68,1.79-0.68,2.47,0l0.82,0.82
		c0.68,0.68,0.68,1.79,0,2.47L877.96,1218.93z"/>
	<path class="st50" d="M877.96,1286.8c-0.22,0.22-0.52,0.34-0.82,0.34c-0.31,0-0.6-0.12-0.82-0.34l-6.58-6.58
		c-0.68-0.68-0.68-1.79,0-2.47l0.82-0.82c0.68-0.68,1.79-0.68,2.47,0l4.11,4.11l11.1-11.1c0.68-0.68,1.79-0.68,2.47,0l0.82,0.82
		c0.68,0.68,0.68,1.79,0,2.47L877.96,1286.8z"/>
	<path class="st50" d="M877.96,1376.56c-0.22,0.22-0.52,0.34-0.82,0.34c-0.31,0-0.6-0.12-0.82-0.34l-6.58-6.58
		c-0.68-0.68-0.68-1.79,0-2.47l0.82-0.82c0.68-0.68,1.79-0.68,2.47,0l4.11,4.11l11.1-11.1c0.68-0.68,1.79-0.68,2.47,0l0.82,0.82
		c0.68,0.68,0.68,1.79,0,2.47L877.96,1376.56z"/>
	<path class="st50" d="M877.96,1098.07c-0.22,0.22-0.52,0.34-0.82,0.34c-0.31,0-0.6-0.12-0.82-0.34l-6.58-6.58
		c-0.68-0.68-0.68-1.79,0-2.47l0.82-0.82c0.68-0.68,1.79-0.68,2.47,0l4.11,4.11l11.1-11.1c0.68-0.68,1.79-0.68,2.47,0l0.82,0.82
		c0.68,0.68,0.68,1.79,0,2.47L877.96,1098.07z"/>
	<path class="st50" d="M631.52,480.75c-0.22,0.22-0.52,0.34-0.82,0.34c-0.31,0-0.6-0.12-0.82-0.34l-6.58-6.58
		c-0.68-0.68-0.68-1.79,0-2.47l0.82-0.82c0.68-0.68,1.79-0.68,2.47,0l4.11,4.11l11.1-11.1c0.68-0.68,1.79-0.68,2.47,0l0.82,0.82
		c0.68,0.68,0.68,1.79,0,2.47L631.52,480.75z"/>
	<path class="st50" d="M631.52,1021.78c-0.22,0.22-0.52,0.34-0.82,0.34c-0.31,0-0.6-0.12-0.82-0.34l-6.58-6.58
		c-0.68-0.68-0.68-1.79,0-2.47l0.82-0.82c0.68-0.68,1.79-0.68,2.47,0l4.11,4.11l11.1-11.1c0.68-0.68,1.79-0.68,2.47,0l0.82,0.82
		c0.68,0.68,0.68,1.79,0,2.47L631.52,1021.78z"/>
	<path class="st50" d="M631.52,1152.29c-0.22,0.22-0.52,0.34-0.82,0.34c-0.31,0-0.6-0.12-0.82-0.34l-6.58-6.58
		c-0.68-0.68-0.68-1.79,0-2.47l0.82-0.82c0.68-0.68,1.79-0.68,2.47,0l4.11,4.11l11.1-11.1c0.68-0.68,1.79-0.68,2.47,0l0.82,0.82
		c0.68,0.68,0.68,1.79,0,2.47L631.52,1152.29z"/>
	<path class="st50" d="M631.52,1218.93c-0.22,0.22-0.52,0.34-0.82,0.34c-0.31,0-0.6-0.12-0.82-0.34l-6.58-6.58
		c-0.68-0.68-0.68-1.79,0-2.47l0.82-0.82c0.68-0.68,1.79-0.68,2.47,0l4.11,4.11l11.1-11.1c0.68-0.68,1.79-0.68,2.47,0l0.82,0.82
		c0.68,0.68,0.68,1.79,0,2.47L631.52,1218.93z"/>
	<path class="st50" d="M631.52,1286.8c-0.22,0.22-0.52,0.34-0.82,0.34c-0.31,0-0.6-0.12-0.82-0.34l-6.58-6.58
		c-0.68-0.68-0.68-1.79,0-2.47l0.82-0.82c0.68-0.68,1.79-0.68,2.47,0l4.11,4.11l11.1-11.1c0.68-0.68,1.79-0.68,2.47,0l0.82,0.82
		c0.68,0.68,0.68,1.79,0,2.47L631.52,1286.8z"/>
	<path class="st50" d="M400.79,480.75c-0.22,0.22-0.52,0.34-0.82,0.34c-0.31,0-0.61-0.12-0.82-0.34l-6.58-6.58
		c-0.68-0.68-0.68-1.79,0-2.47l0.82-0.82c0.68-0.68,1.79-0.68,2.47,0l4.11,4.11l11.1-11.1c0.68-0.68,1.79-0.68,2.47,0l0.82,0.82
		c0.68,0.68,0.68,1.79,0,2.47L400.79,480.75z"/>
	<path class="st50" d="M400.79,1021.78c-0.22,0.22-0.52,0.34-0.82,0.34c-0.31,0-0.61-0.12-0.82-0.34l-6.58-6.58
		c-0.68-0.68-0.68-1.79,0-2.47l0.82-0.82c0.68-0.68,1.79-0.68,2.47,0l4.11,4.11l11.1-11.1c0.68-0.68,1.79-0.68,2.47,0l0.82,0.82
		c0.68,0.68,0.68,1.79,0,2.47L400.79,1021.78z"/>
	<path class="st50" d="M400.79,1152.29c-0.22,0.22-0.52,0.34-0.82,0.34c-0.31,0-0.61-0.12-0.82-0.34l-6.58-6.58
		c-0.68-0.68-0.68-1.79,0-2.47l0.82-0.82c0.68-0.68,1.79-0.68,2.47,0l4.11,4.11l11.1-11.1c0.68-0.68,1.79-0.68,2.47,0l0.82,0.82
		c0.68,0.68,0.68,1.79,0,2.47L400.79,1152.29z"/>
	<path class="st50" d="M400.79,1218.93c-0.22,0.22-0.52,0.34-0.82,0.34c-0.31,0-0.61-0.12-0.82-0.34l-6.58-6.58
		c-0.68-0.68-0.68-1.79,0-2.47l0.82-0.82c0.68-0.68,1.79-0.68,2.47,0l4.11,4.11l11.1-11.1c0.68-0.68,1.79-0.68,2.47,0l0.82,0.82
		c0.68,0.68,0.68,1.79,0,2.47L400.79,1218.93z"/>
	<path class="st50" d="M1129.09,554.42c-0.22,0.22-0.52,0.34-0.82,0.34c-0.31,0-0.6-0.12-0.82-0.34l-6.58-6.58
		c-0.68-0.68-0.68-1.79,0-2.47l0.82-0.82c0.68-0.68,1.79-0.68,2.47,0l4.11,4.11l11.1-11.1c0.68-0.68,1.79-0.68,2.47,0l0.82,0.82
		c0.68,0.68,0.68,1.79,0,2.47L1129.09,554.42z"/>
	<path class="st50" d="M1129.09,786.83c-0.22,0.22-0.52,0.34-0.82,0.34c-0.31,0-0.6-0.12-0.82-0.34l-6.58-6.58
		c-0.68-0.68-0.68-1.79,0-2.47l0.82-0.82c0.68-0.68,1.79-0.68,2.47,0l4.11,4.11l11.1-11.1c0.68-0.68,1.79-0.68,2.47,0l0.82,0.82
		c0.68,0.68,0.68,1.79,0,2.47L1129.09,786.83z"/>
	<path class="st50" d="M1129.09,639.41c-0.22,0.22-0.52,0.34-0.82,0.34c-0.31,0-0.6-0.12-0.82-0.34l-6.58-6.58
		c-0.68-0.68-0.68-1.79,0-2.47l0.82-0.82c0.68-0.68,1.79-0.68,2.47,0l4.11,4.11l11.1-11.1c0.68-0.68,1.79-0.68,2.47,0l0.82,0.82
		c0.68,0.68,0.68,1.79,0,2.47L1129.09,639.41z"/>
	<path class="st50" d="M1129.09,871.82c-0.22,0.22-0.52,0.34-0.82,0.34c-0.31,0-0.6-0.12-0.82-0.34l-6.58-6.58
		c-0.68-0.68-0.68-1.79,0-2.47l0.82-0.82c0.68-0.68,1.79-0.68,2.47,0l4.11,4.11l11.1-11.1c0.68-0.68,1.79-0.68,2.47,0l0.82,0.82
		c0.68,0.68,0.68,1.79,0,2.47L1129.09,871.82z"/>
	<path class="st50" d="M877.96,554.42c-0.22,0.22-0.52,0.34-0.82,0.34c-0.31,0-0.6-0.12-0.82-0.34l-6.58-6.58
		c-0.68-0.68-0.68-1.79,0-2.47l0.82-0.82c0.68-0.68,1.79-0.68,2.47,0l4.11,4.11l11.1-11.1c0.68-0.68,1.79-0.68,2.47,0l0.82,0.82
		c0.68,0.68,0.68,1.79,0,2.47L877.96,554.42z"/>
	<path class="st50" d="M877.96,786.83c-0.22,0.22-0.52,0.34-0.82,0.34c-0.31,0-0.6-0.12-0.82-0.34l-6.58-6.58
		c-0.68-0.68-0.68-1.79,0-2.47l0.82-0.82c0.68-0.68,1.79-0.68,2.47,0l4.11,4.11l11.1-11.1c0.68-0.68,1.79-0.68,2.47,0l0.82,0.82
		c0.68,0.68,0.68,1.79,0,2.47L877.96,786.83z"/>
	<path class="st50" d="M877.96,639.41c-0.22,0.22-0.52,0.34-0.82,0.34c-0.31,0-0.6-0.12-0.82-0.34l-6.58-6.58
		c-0.68-0.68-0.68-1.79,0-2.47l0.82-0.82c0.68-0.68,1.79-0.68,2.47,0l4.11,4.11l11.1-11.1c0.68-0.68,1.79-0.68,2.47,0l0.82,0.82
		c0.68,0.68,0.68,1.79,0,2.47L877.96,639.41z"/>
	<path class="st50" d="M877.96,871.82c-0.22,0.22-0.52,0.34-0.82,0.34c-0.31,0-0.6-0.12-0.82-0.34l-6.58-6.58
		c-0.68-0.68-0.68-1.79,0-2.47l0.82-0.82c0.68-0.68,1.79-0.68,2.47,0l4.11,4.11l11.1-11.1c0.68-0.68,1.79-0.68,2.47,0l0.82,0.82
		c0.68,0.68,0.68,1.79,0,2.47L877.96,871.82z"/>
	<path class="st50" d="M631.52,554.42c-0.22,0.22-0.52,0.34-0.82,0.34c-0.31,0-0.6-0.12-0.82-0.34l-6.58-6.58
		c-0.68-0.68-0.68-1.79,0-2.47l0.82-0.82c0.68-0.68,1.79-0.68,2.47,0l4.11,4.11l11.1-11.1c0.68-0.68,1.79-0.68,2.47,0l0.82,0.82
		c0.68,0.68,0.68,1.79,0,2.47L631.52,554.42z"/>
	<path class="st50" d="M400.79,554.42c-0.22,0.22-0.52,0.34-0.82,0.34c-0.31,0-0.61-0.12-0.82-0.34l-6.58-6.58
		c-0.68-0.68-0.68-1.79,0-2.47l0.82-0.82c0.68-0.68,1.79-0.68,2.47,0l4.11,4.11l11.1-11.1c0.68-0.68,1.79-0.68,2.47,0l0.82,0.82
		c0.68,0.68,0.68,1.79,0,2.47L400.79,554.42z"/>
	<path class="st51" d="M403.18,638.75c5.5,0,9.97-4.46,9.97-9.97c0-5.5-4.46-9.96-9.97-9.96c-5.5,0-9.97,4.46-9.97,9.96
		C393.21,634.29,397.67,638.75,403.18,638.75z"/>
	<path class="st52" d="M488.59,358.26c5.5,0,9.97-4.46,9.97-9.97c0-5.5-4.46-9.96-9.97-9.96c-5.5,0-9.97,4.46-9.97,9.96
		C478.62,353.8,483.08,358.26,488.59,358.26z"/>
	<path class="st52" d="M734.04,358.26c5.5,0,9.97-4.46,9.97-9.97c0-5.5-4.46-9.96-9.97-9.96c-5.5,0-9.97,4.46-9.97,9.96
		C724.08,353.8,728.54,358.26,734.04,358.26z"/>
	<path class="st52" d="M998.74,358.26c5.5,0,9.97-4.46,9.97-9.97c0-5.5-4.46-9.96-9.97-9.96c-5.5,0-9.97,4.46-9.97,9.96
		C988.77,353.8,993.23,358.26,998.74,358.26z"/>
	<path class="st51" d="M403.18,787.27c5.5,0,9.97-4.46,9.97-9.97c0-5.5-4.46-9.97-9.97-9.97c-5.5,0-9.97,4.46-9.97,9.97
		C393.21,782.81,397.67,787.27,403.18,787.27z"/>
	<path class="st51" d="M403.18,1098.88c5.5,0,9.97-4.46,9.97-9.97c0-5.5-4.46-9.96-9.97-9.96c-5.5,0-9.97,4.46-9.97,9.96
		C393.21,1094.41,397.67,1098.88,403.18,1098.88z"/>
	<path class="st51" d="M403.18,1377.7c5.5,0,9.97-4.46,9.97-9.97c0-5.5-4.46-9.96-9.97-9.96c-5.5,0-9.97,4.46-9.97,9.96
		C393.21,1373.23,397.67,1377.7,403.18,1377.7z"/>
	<path class="st51" d="M403.18,1461.47c5.5,0,9.97-4.46,9.97-9.97c0-5.5-4.46-9.96-9.97-9.96c-5.5,0-9.97,4.46-9.97,9.96
		C393.21,1457.01,397.67,1461.47,403.18,1461.47z"/>
	<path class="st51" d="M403.18,1560.31c5.5,0,9.97-4.46,9.97-9.97c0-5.5-4.46-9.97-9.97-9.97c-5.5,0-9.97,4.46-9.97,9.97
		C393.21,1555.84,397.67,1560.31,403.18,1560.31z"/>
	<path class="st51" d="M403.18,1288.25c5.5,0,9.97-4.46,9.97-9.97c0-5.5-4.46-9.97-9.97-9.97c-5.5,0-9.97,4.46-9.97,9.97
		C393.21,1283.78,397.67,1288.25,403.18,1288.25z"/>
	<path class="st51" d="M403.18,714.14c5.5,0,9.97-4.46,9.97-9.97c0-5.5-4.46-9.96-9.97-9.96c-5.5,0-9.97,4.46-9.97,9.96
		C393.21,709.68,397.67,714.14,403.18,714.14z"/>
	<path class="st53" d="M704.43,714.14c5.5,0,9.97-4.46,9.97-9.97c0-5.5-4.46-9.96-9.97-9.96c-5.5,0-9.97,4.46-9.97,9.96
		C694.46,709.68,698.93,714.14,704.43,714.14z"/>
	<path class="st53" d="M951.06,714.14c5.5,0,9.97-4.46,9.97-9.97c0-5.5-4.46-9.96-9.97-9.96c-5.5,0-9.97,4.46-9.97,9.96
		C941.1,709.68,945.56,714.14,951.06,714.14z"/>
	<path class="st53" d="M946.31,1462.17c5.5,0,9.97-4.46,9.97-9.97c0-5.5-4.46-9.97-9.97-9.97c-5.5,0-9.97,4.46-9.97,9.97
		C936.34,1457.71,940.8,1462.17,946.31,1462.17z"/>
	<path class="st53" d="M1191.53,714.14c5.5,0,9.97-4.46,9.97-9.97c0-5.5-4.46-9.96-9.97-9.96c-5.5,0-9.97,4.46-9.97,9.96
		C1181.57,709.68,1186.03,714.14,1191.53,714.14z"/>
	<path class="st53" d="M1173.44,1462.17c5.5,0,9.97-4.46,9.97-9.97c0-5.5-4.46-9.97-9.97-9.97c-5.5,0-9.97,4.46-9.97,9.97
		C1163.47,1457.71,1167.94,1462.17,1173.44,1462.17z"/>
	<path class="st51" d="M635.13,638.75c5.5,0,9.97-4.46,9.97-9.97c0-5.5-4.46-9.96-9.97-9.96c-5.5,0-9.97,4.46-9.97,9.96
		C625.16,634.29,629.62,638.75,635.13,638.75z"/>
	<path class="st51" d="M638.54,788.55c5.5,0,9.97-4.46,9.97-9.97c0-5.5-4.46-9.97-9.97-9.97c-5.5,0-9.97,4.46-9.97,9.97
		C628.58,784.09,633.04,788.55,638.54,788.55z"/>
	<path class="st51" d="M638.54,1100.16c5.5,0,9.97-4.46,9.97-9.97c0-5.5-4.46-9.96-9.97-9.96c-5.5,0-9.97,4.46-9.97,9.96
		C628.58,1095.7,633.04,1100.16,638.54,1100.16z"/>
	<path class="st51" d="M638.54,1378.98c5.5,0,9.97-4.46,9.97-9.97c0-5.5-4.46-9.96-9.97-9.96c-5.5,0-9.97,4.46-9.97,9.96
		C628.58,1374.52,633.04,1378.98,638.54,1378.98z"/>
	<path class="st51" d="M638.54,1462.76c5.5,0,9.97-4.46,9.97-9.97c0-5.5-4.46-9.96-9.97-9.96c-5.5,0-9.97,4.46-9.97,9.96
		C628.58,1458.3,633.04,1462.76,638.54,1462.76z"/>
	<path class="st51" d="M638.54,1561.59c5.5,0,9.97-4.46,9.97-9.97c0-5.5-4.46-9.96-9.97-9.96c-5.5,0-9.97,4.46-9.97,9.96
		C628.58,1557.13,633.04,1561.59,638.54,1561.59z"/>
	<path class="st51" d="M880.35,1561.59c5.5,0,9.97-4.46,9.97-9.97c0-5.5-4.46-9.96-9.97-9.96c-5.5,0-9.97,4.46-9.97,9.96
		C870.38,1557.13,874.84,1561.59,880.35,1561.59z"/>
	<path class="st51" d="M638.54,873.58c5.5,0,9.97-4.46,9.97-9.97c0-5.5-4.46-9.97-9.97-9.97c-5.5,0-9.97,4.46-9.97,9.97
		C628.58,869.12,633.04,873.58,638.54,873.58z"/>
</g>
</svg>
