<?xml version="1.0" encoding="utf-8"?>
<!-- Generator: Adobe Illustrator 24.1.1, SVG Export Plug-In . SVG Version: 6.00 Build 0)  -->
<svg version="1.1" id="Layer_1" xmlns="http://www.w3.org/2000/svg" xmlns:xlink="http://www.w3.org/1999/xlink" x="0px" y="0px"
	 viewBox="0 0 511.94 382.62" style="enable-background:new 0 0 511.94 382.62;" xml:space="preserve">
<style type="text/css">
	.st0{fill:#595A5C;}
	.st1{font-family:'MyriadPro-Regular';}
	.st2{font-size:11px;}
	.st3{font-family:'MyriadPro-Semibold';}
	.st4{font-size:12px;}
	.st5{fill:#5B5F5E;}
	.st6{font-family:'MyriadPro-LightIt';}
	.st7{font-size:10px;}
	.st8{fill:#59595C;}
	.st9{font-family:'MyriadPro-Light';}
	.st10{display:none;}
	.st11{display:inline;}
	.st12{font-size:16.7217px;}
	.st13{fill:none;stroke:#000000;stroke-miterlimit:10;}
	.st14{fill:none;stroke:#E6E7E7;stroke-width:2;stroke-miterlimit:10;}
	.st15{stroke:#000000;stroke-width:0.5;stroke-miterlimit:10;}
	.st16{fill:none;stroke:#E6E7E7;stroke-width:0.5;stroke-miterlimit:10;}
	.st17{fill:none;}
	.st18{fill:#EA2127;}
	.st19{fill:#F05B24;}
</style>
<g>
	<text transform="matrix(1 0 0 1 20.3927 81.149)" class="st0 st1 st2">China</text>
</g>
<g>
	<text transform="matrix(1 0 0 1 15.3214 110.964)" class="st0 st1 st2">ASEAN</text>
</g>
<g>
	<text transform="matrix(1 0 0 1 24.0446 140.7789)" class="st0 st1 st2">India</text>
</g>
<g>
	<text transform="matrix(1 0 0 1 34.318 171.8625)" class="st0 st1 st2">US</text>
</g>
<g>
	<text transform="matrix(1 0 0 1 33.7794 199.7744)" class="st0 st1 st2">UK</text>
</g>
<g>
	<text transform="matrix(1 0 0 1 34.3292 230.858)" class="st0 st1 st2">EU</text>
</g>
<g>
	<text transform="matrix(1 0 0 1 13.8693 261.3073)" class="st0 st1 st2">Mexico</text>
</g>
<g>
	<text transform="matrix(1 0 0 1 19.8205 289.2191)" class="st0 st1 st2">Japan</text>
</g>
<g>
	<text transform="matrix(1 0 0 1 14.2774 24.1622)" class="st0 st3 st4">Global Growth Forecast – 2020 </text>
</g>
<g>
	<text transform="matrix(1 0 0 1 14.4541 320.1557)" class="st5 st6 st7">Note: *includes current data concerning impact of COVID-19</text>
</g>
<g>
	<g>
		<text transform="matrix(1 0 0 1 14.4097 42.6026)" class="st8 st9 st7">2020 Expected GDP growth rate (%)</text>
	</g>
</g>
<g class="st10">
	<g class="st11">
		<g>
			<text transform="matrix(1 0 0 1 45.0122 314.8849)" class="st1 st12">0</text>
			<text transform="matrix(1 0 0 1 104.4672 314.8849)" class="st1 st12">1</text>
			<text transform="matrix(1 0 0 1 163.9223 314.8849)" class="st1 st12">2</text>
			<text transform="matrix(1 0 0 1 223.3774 314.8849)" class="st1 st12">3</text>
			<text transform="matrix(1 0 0 1 282.8325 314.8849)" class="st1 st12">4</text>
			<text transform="matrix(1 0 0 1 342.2875 314.8849)" class="st1 st12">5</text>
			<text transform="matrix(1 0 0 1 401.7426 314.8849)" class="st1 st12">6</text>
		</g>
		<line class="st13" x1="49.3" y1="299.03" x2="406.03" y2="299.03"/>
		<g>
			<g>
				<line class="st13" x1="49.3" y1="299.03" x2="49.3" y2="293.73"/>
				<line class="st13" x1="108.76" y1="299.03" x2="108.76" y2="293.73"/>
				<line class="st13" x1="168.21" y1="299.03" x2="168.21" y2="293.73"/>
				<line class="st13" x1="227.67" y1="299.03" x2="227.67" y2="293.73"/>
				<line class="st13" x1="287.12" y1="299.03" x2="287.12" y2="293.73"/>
				<line class="st13" x1="346.58" y1="299.03" x2="346.58" y2="293.73"/>
				<line class="st13" x1="406.03" y1="299.03" x2="406.03" y2="293.73"/>
			</g>
			<g>
			</g>
		</g>
	</g>
	<g class="st11">
		<line class="st14" x1="49.3" y1="299.03" x2="49.3" y2="86.93"/>
		<g>
			<g>
				<line class="st13" x1="49.3" y1="283.88" x2="58.22" y2="283.88"/>
				<line class="st13" x1="49.3" y1="253.58" x2="58.22" y2="253.58"/>
				<line class="st13" x1="49.3" y1="223.28" x2="58.22" y2="223.28"/>
				<line class="st13" x1="49.3" y1="192.98" x2="58.22" y2="192.98"/>
				<line class="st13" x1="49.3" y1="162.68" x2="58.22" y2="162.68"/>
				<line class="st13" x1="49.3" y1="132.38" x2="58.22" y2="132.38"/>
				<line class="st13" x1="49.3" y1="102.08" x2="58.22" y2="102.08"/>
			</g>
			<g>
			</g>
		</g>
	</g>
	<g class="st11">
		<g>
			<rect x="432.33" y="86.93" class="st15" width="44.59" height="21.21"/>
			<g>
				<rect x="49.3" y="91.18" class="st15" width="338.89" height="21.82"/>
				<rect x="49.3" y="121.47" class="st15" width="297.28" height="21.82"/>
				<rect x="49.3" y="151.77" class="st15" width="118.91" height="21.82"/>
				<rect x="49.3" y="212.37" class="st15" width="71.35" height="21.82"/>
				<rect x="49.3" y="242.67" class="st15" width="59.46" height="21.82"/>
				<rect x="49.3" y="272.97" class="st15" width="29.73" height="21.82"/>
			</g>
		</g>
	</g>
	<g class="st11">
		<g>
		</g>
	</g>
	<g class="st11">
		<text transform="matrix(1 0 0 1 482.4926 103.8087)" class="st1 st12">5.5-6</text>
	</g>
</g>
<g>
	<line class="st16" x1="126.63" y1="300.22" x2="126.63" y2="63.4"/>
	<line class="st16" x1="185.99" y1="300.22" x2="185.99" y2="63.4"/>
	<line class="st16" x1="245.01" y1="300.22" x2="245.01" y2="63.4"/>
	<line class="st16" x1="304.97" y1="300.22" x2="304.97" y2="63.4"/>
	<line class="st16" x1="364.13" y1="300.22" x2="364.13" y2="63.4"/>
	<line class="st16" x1="423.33" y1="300.22" x2="423.33" y2="63.4"/>
	<line class="st14" x1="58.99" y1="299.32" x2="58.99" y2="63.07"/>
	<rect x="425.41" y="71.38" class="st17" width="33.23" height="13.06"/>
	<text transform="matrix(1 0 0 1 432.6877 79.8981)"><tspan x="0" y="0" class="st18 st3 st7">5.5-6*</tspan><tspan x="25.96" y="0" class="st18 st3 st4"> </tspan></text>
	<rect x="404.47" y="102.53" class="st17" width="24.01" height="13.06"/>
	<text transform="matrix(1 0 0 1 415.3996 109.6292)" class="st18 st3 st7">5.7 </text>
	<rect x="354.73" y="133.3" class="st17" width="24.01" height="13.06"/>
	<text transform="matrix(1 0 0 1 373.3819 140.3957)" class="st18 st3 st7">5 </text>
	<rect x="176.09" y="163.11" class="st17" width="24.01" height="13.06"/>
	<text transform="matrix(1 0 0 1 194.7345 171.6305)"><tspan x="0" y="0" class="st18 st3 st7">2</tspan><tspan x="5.36" y="0" class="st18 st3 st4"> </tspan></text>
	<rect x="184.34" y="193.24" class="st17" width="32.55" height="13.06"/>
	<text transform="matrix(1 0 0 1 195.3011 200.3427)" class="st18 st3 st7">1.5-2</text>
	<rect x="121.08" y="224.65" class="st17" width="32.55" height="13.06"/>
	<text transform="matrix(1 0 0 1 140.5535 231.7455)" class="st18 st3 st7">1.2</text>
	<rect x="104.9" y="254.46" class="st17" width="32.55" height="13.06"/>
	<text transform="matrix(1 0 0 1 132.0896 261.5604)" class="st18 st3 st7">1</text>
	<rect x="84.79" y="283.53" class="st17" width="32.55" height="13.06"/>
	<text transform="matrix(1 0 0 1 104.2601 290.6261)" class="st18 st3 st7">0.5</text>
	<rect x="67.63" y="68.03" class="st18" width="324.17" height="17.43"/>
	<rect x="67.63" y="98.54" class="st18" width="338.66" height="17.43"/>
	<rect x="67.63" y="129.06" class="st18" width="297.27" height="17.43"/>
	<rect x="67.63" y="159.51" class="st18" width="118.89" height="17.43"/>
	<rect x="391.87" y="67.94" class="st19" width="32.03" height="17.43"/>
	<rect x="67.63" y="189.19" class="st18" width="87.32" height="17.43"/>
	<rect x="67.63" y="220.27" class="st18" width="66.94" height="17.43"/>
	<rect x="67.63" y="249.9" class="st18" width="59.04" height="17.43"/>
	<rect x="67.63" y="279.55" class="st18" width="29.52" height="17.43"/>
	<rect x="154.75" y="189.1" class="st19" width="32.03" height="17.43"/>
</g>
</svg>
