<?xml version="1.0" encoding="utf-8"?>
<!-- Generator: Adobe Illustrator 24.1.1, SVG Export Plug-In . SVG Version: 6.00 Build 0)  -->
<svg version="1.1" id="Layer_1" xmlns="http://www.w3.org/2000/svg" xmlns:xlink="http://www.w3.org/1999/xlink" x="0px" y="0px"
	 viewBox="0 0 504.01 505.86" style="enable-background:new 0 0 504.01 505.86;" xml:space="preserve">
<style type="text/css">
	.st0{fill:#EF4130;}
	.st1{fill:#F47E60;}
	.st2{fill:#C9CACC;}
	.st3{fill:#FFFFFF;}
	.st4{fill:none;stroke:#E6E7E8;stroke-width:0.5;stroke-miterlimit:10;}
	.st5{font-family:'MyriadPro-Semibold';}
	.st6{font-size:9px;}
	.st7{fill:#58595B;}
	.st8{font-family:'MyriadPro-Regular';}
	.st9{font-family:'MyriadPro-Light';}
</style>
<rect x="9" y="7" class="st0" width="483.59" height="24.09"/>
<path class="st1" d="M409.54,31.09h83.05v19.84h-83.05V31.09z M338.67,31.09h70.87v19.84h-70.87V31.09z M210.16,31.09h128.5v19.84
	h-128.5V31.09z M9,31.09h201.16v19.84H9V31.09z"/>
<path class="st2" d="M9,393.22h483.59v22.68H9V393.22z M9,319.52h483.59v22.68H9V319.52z M9,245.82h483.59v22.68H9V245.82z
	 M9,173.54h483.59v21.26H9V173.54z M9,50.94h483.59v20.55H9V50.94z"/>
<path class="st3" d="M409.54,268.5h83.05v51.02h-83.05V268.5z M338.67,268.5h70.87v51.02h-70.87V268.5z M210.16,268.5h128.5v51.02
	h-128.5V268.5z M9,194.8h201.16v51.02H9V194.8z M409.54,71.49h83.05v51.02h-83.05V71.49z M338.67,71.49h70.87v51.02h-70.87V71.49z
	 M210.16,71.49h128.5v51.02h-128.5V71.49z M9,71.49h201.16v51.02H9V71.49z"/>
<line class="st4" x1="9" y1="122.51" x2="210.16" y2="122.51"/>
<line class="st4" x1="210.17" y1="122.51" x2="338.67" y2="122.51"/>
<line class="st4" x1="338.67" y1="122.51" x2="409.54" y2="122.51"/>
<line class="st4" x1="409.54" y1="122.51" x2="492.59" y2="122.51"/>
<line class="st4" x1="338.67" y1="466.92" x2="409.54" y2="466.92"/>
<line class="st4" x1="409.54" y1="466.92" x2="492.59" y2="466.92"/>
<line class="st4" x1="9" y1="466.92" x2="210.16" y2="466.92"/>
<line class="st4" x1="210.17" y1="466.92" x2="338.67" y2="466.92"/>
<line class="st4" x1="9" y1="245.82" x2="210.16" y2="245.82"/>
<line class="st4" x1="210.17" y1="245.82" x2="338.67" y2="245.82"/>
<line class="st4" x1="338.67" y1="245.82" x2="409.54" y2="245.82"/>
<line class="st4" x1="409.54" y1="245.82" x2="492.59" y2="245.82"/>
<line class="st4" x1="9" y1="268.5" x2="210.16" y2="268.5"/>
<line class="st4" x1="210.17" y1="268.5" x2="338.67" y2="268.5"/>
<line class="st4" x1="338.67" y1="268.5" x2="409.54" y2="268.5"/>
<line class="st4" x1="409.54" y1="268.5" x2="492.59" y2="268.5"/>
<line class="st4" x1="9" y1="319.52" x2="210.16" y2="319.52"/>
<line class="st4" x1="210.17" y1="319.52" x2="338.67" y2="319.52"/>
<line class="st4" x1="338.67" y1="319.52" x2="409.54" y2="319.52"/>
<line class="st4" x1="409.54" y1="319.52" x2="492.59" y2="319.52"/>
<line class="st4" x1="9" y1="342.2" x2="210.16" y2="342.2"/>
<line class="st4" x1="210.17" y1="342.2" x2="338.67" y2="342.2"/>
<line class="st4" x1="338.67" y1="342.2" x2="409.54" y2="342.2"/>
<line class="st4" x1="409.54" y1="342.2" x2="492.59" y2="342.2"/>
<line class="st4" x1="9" y1="393.22" x2="210.16" y2="393.22"/>
<line class="st4" x1="210.17" y1="393.22" x2="338.67" y2="393.22"/>
<line class="st4" x1="338.67" y1="393.22" x2="409.54" y2="393.22"/>
<line class="st4" x1="409.54" y1="393.22" x2="492.59" y2="393.22"/>
<line class="st4" x1="9" y1="415.9" x2="210.16" y2="415.9"/>
<line class="st4" x1="210.17" y1="415.9" x2="338.67" y2="415.9"/>
<line class="st4" x1="338.67" y1="415.9" x2="409.54" y2="415.9"/>
<line class="st4" x1="409.54" y1="415.9" x2="492.59" y2="415.9"/>
<path class="st3" d="M129.04,15.86c0.48-0.09,1.16-0.15,2.07-0.15c0.99,0,1.72,0.21,2.19,0.61c0.44,0.36,0.73,0.95,0.73,1.64
	c0,0.7-0.22,1.29-0.64,1.68c-0.54,0.54-1.39,0.79-2.34,0.79c-0.25,0-0.48-0.01-0.66-0.04v2.79h-1.34V15.86z M130.38,19.31
	c0.17,0.04,0.39,0.05,0.66,0.05c1.01,0,1.63-0.5,1.63-1.36c0-0.83-0.57-1.27-1.51-1.27c-0.37,0-0.64,0.03-0.78,0.07V19.31z
	 M139.95,20.44c0,1.97-1.39,2.85-2.75,2.85c-1.52,0-2.68-1.05-2.68-2.76c0-1.76,1.16-2.84,2.77-2.84
	C138.88,17.69,139.95,18.82,139.95,20.44z M135.91,20.5c0,1.03,0.51,1.82,1.33,1.82c0.77,0,1.31-0.76,1.31-1.84
	c0-0.84-0.37-1.79-1.3-1.79C136.3,18.68,135.91,19.61,135.91,20.5z M141.06,15.36h1.36v7.81h-1.36V15.36z M145.33,16.32
	c0,0.41-0.3,0.73-0.77,0.73c-0.45,0-0.75-0.32-0.75-0.73c0-0.42,0.31-0.74,0.76-0.74C145.03,15.58,145.32,15.9,145.33,16.32z
	 M143.89,23.17v-5.36h1.36v5.36H143.89z M150.64,23.01c-0.29,0.13-0.85,0.28-1.52,0.28c-1.67,0-2.76-1.07-2.76-2.73
	c0-1.61,1.1-2.86,2.98-2.86c0.5,0,1,0.11,1.31,0.25l-0.24,1.01c-0.22-0.1-0.54-0.21-1.02-0.21c-1.03,0-1.65,0.76-1.64,1.74
	c0,1.1,0.72,1.73,1.64,1.73c0.47,0,0.8-0.1,1.07-0.21L150.64,23.01z M153.08,16.32c0,0.41-0.3,0.73-0.77,0.73
	c-0.45,0-0.75-0.32-0.75-0.73c0-0.42,0.31-0.74,0.76-0.74C152.79,15.58,153.07,15.9,153.08,16.32z M151.64,23.17v-5.36h1.36v5.36
	H151.64z M155.42,20.87c0.03,0.97,0.79,1.39,1.65,1.39c0.63,0,1.08-0.09,1.49-0.24l0.2,0.94c-0.46,0.19-1.1,0.33-1.87,0.33
	c-1.74,0-2.76-1.07-2.76-2.71c0-1.49,0.9-2.88,2.62-2.88c1.74,0,2.31,1.43,2.31,2.61c0,0.25-0.02,0.45-0.04,0.57H155.42z
	 M157.77,19.93c0.01-0.5-0.21-1.31-1.11-1.31c-0.84,0-1.19,0.76-1.24,1.31H157.77z M160.07,21.93c0.31,0.19,0.89,0.39,1.38,0.39
	c0.59,0,0.86-0.24,0.86-0.59c0-0.36-0.22-0.55-0.88-0.78c-1.05-0.36-1.49-0.94-1.47-1.56c0-0.95,0.78-1.68,2.02-1.68
	c0.59,0,1.11,0.15,1.42,0.32l-0.26,0.96c-0.23-0.13-0.66-0.31-1.13-0.31c-0.48,0-0.75,0.23-0.75,0.56c0,0.34,0.25,0.51,0.94,0.75
	c0.97,0.35,1.42,0.85,1.43,1.64c0,0.97-0.76,1.67-2.18,1.67c-0.65,0-1.23-0.15-1.63-0.37L160.07,21.93z M167.02,21.7
	c0.44,0.25,1.1,0.47,1.79,0.47c0.87,0,1.35-0.41,1.35-1.01c0-0.56-0.37-0.89-1.32-1.23c-1.22-0.44-2-1.09-2-2.16
	c0-1.21,1.01-2.13,2.62-2.13c0.8,0,1.4,0.18,1.78,0.37l-0.33,1.09c-0.26-0.14-0.78-0.35-1.47-0.35c-0.86,0-1.23,0.46-1.23,0.89
	c0,0.57,0.43,0.84,1.42,1.22c1.29,0.48,1.91,1.13,1.91,2.2c0,1.19-0.9,2.22-2.82,2.22c-0.78,0-1.6-0.22-2-0.46L167.02,21.7z
	 M177.51,21.57c0,0.64,0.02,1.17,0.04,1.61h-1.19l-0.07-0.81h-0.02c-0.23,0.39-0.76,0.94-1.72,0.94c-0.98,0-1.87-0.58-1.87-2.33
	v-3.15h1.35v2.92c0,0.89,0.29,1.46,1,1.46c0.54,0,0.89-0.39,1.03-0.73c0.04-0.12,0.08-0.26,0.08-0.42v-3.23h1.35V21.57z
	 M178.97,19.6c0-0.7-0.02-1.28-0.04-1.78h1.19l0.07,0.83h0.02c0.4-0.61,1.02-0.95,1.84-0.95c1.23,0,2.26,1.06,2.26,2.73
	c0,1.94-1.22,2.87-2.44,2.87c-0.67,0-1.23-0.29-1.51-0.72h-0.02v2.77h-1.35V19.6z M180.32,20.93c0,0.13,0.01,0.25,0.04,0.37
	c0.13,0.55,0.62,0.95,1.19,0.95c0.86,0,1.36-0.72,1.36-1.77c0-0.95-0.46-1.72-1.33-1.72c-0.56,0-1.08,0.41-1.21,1
	c-0.03,0.11-0.06,0.23-0.06,0.34V20.93z M185.4,19.6c0-0.7-0.02-1.28-0.04-1.78h1.19l0.07,0.83h0.02c0.4-0.61,1.02-0.95,1.84-0.95
	c1.23,0,2.26,1.06,2.26,2.73c0,1.94-1.22,2.87-2.44,2.87c-0.67,0-1.23-0.29-1.51-0.72h-0.02v2.77h-1.35V19.6z M186.76,20.93
	c0,0.13,0.01,0.25,0.04,0.37c0.13,0.55,0.62,0.95,1.19,0.95c0.86,0,1.36-0.72,1.36-1.77c0-0.95-0.46-1.72-1.33-1.72
	c-0.56,0-1.08,0.41-1.21,1c-0.03,0.11-0.06,0.23-0.06,0.34V20.93z M196.93,20.44c0,1.97-1.39,2.85-2.75,2.85
	c-1.52,0-2.68-1.05-2.68-2.76c0-1.76,1.16-2.84,2.77-2.84C195.86,17.69,196.93,18.82,196.93,20.44z M192.89,20.5
	c0,1.03,0.51,1.82,1.33,1.82c0.77,0,1.31-0.76,1.31-1.84c0-0.84-0.37-1.79-1.3-1.79C193.28,18.68,192.89,19.61,192.89,20.5z
	 M198.04,19.54c0-0.73-0.01-1.24-0.04-1.73h1.18l0.04,1.02h0.04c0.26-0.76,0.89-1.14,1.46-1.14c0.13,0,0.21,0.01,0.32,0.03V19
	c-0.11-0.02-0.23-0.04-0.4-0.04c-0.65,0-1.09,0.42-1.21,1.02c-0.02,0.12-0.04,0.26-0.04,0.42v2.77h-1.35V19.54z M203.76,16.28v1.53
	h1.29v1.01h-1.29v2.37c0,0.65,0.18,0.99,0.69,0.99c0.23,0,0.41-0.03,0.53-0.07l0.02,1.03c-0.2,0.08-0.55,0.13-0.98,0.13
	c-0.5,0-0.91-0.17-1.17-0.44c-0.29-0.31-0.42-0.79-0.42-1.5v-2.52h-0.77v-1.01h0.77V16.6L203.76,16.28z M207.51,16.32
	c0,0.41-0.3,0.73-0.77,0.73c-0.45,0-0.75-0.32-0.75-0.73c0-0.42,0.31-0.74,0.76-0.74C207.21,15.58,207.5,15.9,207.51,16.32z
	 M206.07,23.17v-5.36h1.36v5.36H206.07z M208.89,19.41c0-0.62-0.01-1.13-0.04-1.6h1.19l0.07,0.8h0.03c0.23-0.42,0.81-0.92,1.71-0.92
	c0.94,0,1.9,0.61,1.9,2.3v3.18h-1.35v-3.03c0-0.77-0.29-1.35-1.02-1.35c-0.54,0-0.91,0.39-1.06,0.79c-0.04,0.12-0.06,0.29-0.06,0.44
	v3.15h-1.36V19.41z M220.07,17.81c-0.02,0.36-0.04,0.8-0.04,1.54v3.04c0,1.12-0.23,1.93-0.79,2.43c-0.56,0.5-1.33,0.65-2.07,0.65
	c-0.68,0-1.41-0.14-1.87-0.43l0.3-1.02c0.34,0.2,0.91,0.41,1.56,0.41c0.88,0,1.54-0.46,1.54-1.62v-0.46h-0.02
	c-0.31,0.47-0.86,0.79-1.56,0.79c-1.33,0-2.28-1.1-2.28-2.62c0-1.76,1.14-2.83,2.43-2.83c0.81,0,1.3,0.4,1.55,0.84h0.02l0.06-0.72
	H220.07z M218.68,19.96c0-0.12-0.01-0.25-0.04-0.36c-0.14-0.5-0.53-0.87-1.1-0.87c-0.76,0-1.32,0.66-1.32,1.75
	c0,0.91,0.46,1.65,1.31,1.65c0.51,0,0.95-0.33,1.1-0.81c0.03-0.14,0.06-0.33,0.06-0.48V19.96z M223.81,15.86
	c0.59-0.1,1.35-0.15,2.16-0.15c1.39,0,2.34,0.29,3.03,0.86c0.72,0.58,1.16,1.46,1.16,2.73c0,1.32-0.45,2.31-1.16,2.95
	c-0.74,0.67-1.91,1.01-3.36,1.01c-0.79,0-1.39-0.04-1.83-0.1V15.86z M225.17,22.14c0.19,0.03,0.47,0.03,0.75,0.03
	c1.76,0.01,2.81-0.96,2.81-2.84c0.01-1.64-0.94-2.57-2.63-2.57c-0.43,0-0.74,0.03-0.92,0.08V22.14z M232.74,16.32
	c0,0.41-0.3,0.73-0.77,0.73c-0.45,0-0.75-0.32-0.75-0.73c0-0.42,0.31-0.74,0.76-0.74C232.45,15.58,232.73,15.9,232.74,16.32z
	 M231.3,23.17v-5.36h1.36v5.36H231.3z M237.57,23.17v-4.35h-1.95v4.35h-1.35v-4.35h-0.73v-1.01h0.73v-0.13
	c0-0.69,0.17-1.33,0.61-1.77c0.33-0.34,0.83-0.55,1.51-0.55c0.29,0,0.57,0.08,0.74,0.15l-0.22,1c-0.13-0.05-0.31-0.1-0.48-0.1
	c-0.62,0-0.8,0.52-0.8,1.19v0.21h1.96v-0.23c0-0.69,0.19-1.39,0.66-1.83c0.4-0.37,0.92-0.52,1.4-0.52c0.36,0,0.65,0.06,0.86,0.13
	l-0.09,1.05c-0.15-0.05-0.33-0.1-0.58-0.1c-0.67,0-0.89,0.56-0.89,1.22v0.28h1.17v1.01h-1.16v4.35H237.57z M241.78,20.87
	c0.03,0.97,0.79,1.39,1.65,1.39c0.63,0,1.08-0.09,1.49-0.24l0.2,0.94c-0.46,0.19-1.1,0.33-1.87,0.33c-1.74,0-2.76-1.07-2.76-2.71
	c0-1.49,0.9-2.88,2.62-2.88c1.74,0,2.31,1.43,2.31,2.61c0,0.25-0.02,0.45-0.04,0.57H241.78z M244.13,19.93
	c0.01-0.5-0.21-1.31-1.11-1.31c-0.84,0-1.19,0.76-1.24,1.31H244.13z M246.49,19.54c0-0.73-0.01-1.24-0.04-1.73h1.18l0.04,1.02h0.04
	c0.26-0.76,0.89-1.14,1.46-1.14c0.13,0,0.21,0.01,0.32,0.03V19c-0.11-0.02-0.23-0.04-0.4-0.04c-0.65,0-1.09,0.42-1.21,1.02
	c-0.02,0.12-0.04,0.26-0.04,0.42v2.77h-1.35V19.54z M251.27,20.87c0.03,0.97,0.79,1.39,1.65,1.39c0.63,0,1.08-0.09,1.49-0.24
	l0.2,0.94c-0.46,0.19-1.1,0.33-1.87,0.33c-1.74,0-2.76-1.07-2.76-2.71c0-1.49,0.9-2.88,2.62-2.88c1.74,0,2.31,1.43,2.31,2.61
	c0,0.25-0.02,0.45-0.04,0.57H251.27z M253.62,19.93c0.01-0.5-0.21-1.31-1.11-1.31c-0.84,0-1.19,0.76-1.24,1.31H253.62z
	 M255.99,19.41c0-0.62-0.01-1.13-0.04-1.6h1.19l0.07,0.8h0.03c0.23-0.42,0.81-0.92,1.71-0.92c0.94,0,1.9,0.61,1.9,2.3v3.18h-1.35
	v-3.03c0-0.77-0.29-1.35-1.02-1.35c-0.54,0-0.91,0.39-1.06,0.79c-0.04,0.12-0.05,0.29-0.05,0.44v3.15h-1.36V19.41z M263.78,16.28
	v1.53h1.29v1.01h-1.29v2.37c0,0.65,0.18,0.99,0.69,0.99c0.23,0,0.41-0.03,0.53-0.07l0.02,1.03c-0.2,0.08-0.55,0.13-0.98,0.13
	c-0.5,0-0.91-0.17-1.17-0.44c-0.29-0.31-0.42-0.79-0.42-1.5v-2.52h-0.77v-1.01h0.77V16.6L263.78,16.28z M269.77,15.76v7.42h-1.35
	v-7.42H269.77z M271.33,19.41c0-0.62-0.01-1.13-0.04-1.6h1.19l0.07,0.8h0.03c0.23-0.42,0.81-0.92,1.71-0.92c0.94,0,1.9,0.61,1.9,2.3
	v3.18h-1.35v-3.03c0-0.77-0.29-1.35-1.02-1.35c-0.54,0-0.91,0.39-1.06,0.79c-0.04,0.12-0.06,0.29-0.06,0.44v3.15h-1.36V19.41z
	 M282.56,15.36v6.3c0,0.55,0.02,1.14,0.04,1.51h-1.21l-0.05-0.85h-0.02c-0.32,0.59-0.97,0.97-1.75,0.97c-1.28,0-2.29-1.09-2.29-2.74
	c-0.01-1.79,1.11-2.86,2.4-2.86c0.74,0,1.27,0.31,1.51,0.7h0.02v-3.04H282.56z M281.21,20.05c0-0.11-0.01-0.24-0.03-0.35
	c-0.12-0.53-0.55-0.96-1.17-0.96c-0.87,0-1.35,0.77-1.35,1.77c0,0.98,0.48,1.69,1.34,1.69c0.55,0,1.03-0.37,1.17-0.96
	c0.03-0.12,0.04-0.25,0.04-0.4V20.05z M288.81,21.57c0,0.64,0.02,1.17,0.04,1.61h-1.19l-0.07-0.81h-0.02
	c-0.23,0.39-0.76,0.94-1.72,0.94c-0.98,0-1.87-0.58-1.87-2.33v-3.15h1.35v2.92c0,0.89,0.29,1.46,1,1.46c0.54,0,0.89-0.39,1.03-0.73
	c0.04-0.12,0.08-0.26,0.08-0.42v-3.23h1.35V21.57z M290.21,21.93c0.31,0.19,0.89,0.39,1.38,0.39c0.59,0,0.86-0.24,0.86-0.59
	c0-0.36-0.22-0.55-0.88-0.78c-1.05-0.36-1.49-0.94-1.47-1.56c0-0.95,0.78-1.68,2.02-1.68c0.59,0,1.11,0.15,1.42,0.32l-0.26,0.96
	c-0.23-0.13-0.66-0.31-1.13-0.31c-0.48,0-0.75,0.23-0.75,0.56c0,0.34,0.25,0.51,0.94,0.75c0.97,0.35,1.42,0.85,1.43,1.64
	c0,0.97-0.76,1.67-2.18,1.67c-0.65,0-1.23-0.15-1.63-0.37L290.21,21.93z M296.41,16.28v1.53h1.29v1.01h-1.29v2.37
	c0,0.65,0.18,0.99,0.69,0.99c0.23,0,0.41-0.03,0.53-0.07l0.02,1.03c-0.2,0.08-0.55,0.13-0.98,0.13c-0.5,0-0.91-0.17-1.17-0.44
	c-0.29-0.31-0.42-0.79-0.42-1.5v-2.52h-0.77v-1.01h0.77V16.6L296.41,16.28z M298.72,19.54c0-0.73-0.01-1.24-0.04-1.73h1.18
	l0.04,1.02h0.04c0.26-0.76,0.89-1.14,1.46-1.14c0.13,0,0.21,0.01,0.32,0.03V19c-0.11-0.02-0.23-0.04-0.4-0.04
	c-0.65,0-1.09,0.42-1.21,1.02c-0.02,0.12-0.04,0.26-0.04,0.42v2.77h-1.35V19.54z M304.08,16.32c0,0.41-0.3,0.73-0.77,0.73
	c-0.45,0-0.75-0.32-0.75-0.73c0-0.42,0.31-0.74,0.76-0.74C303.78,15.58,304.07,15.9,304.08,16.32z M302.64,23.17v-5.36H304v5.36
	H302.64z M306.41,20.87c0.03,0.97,0.79,1.39,1.65,1.39c0.63,0,1.08-0.09,1.49-0.24l0.2,0.94c-0.46,0.19-1.1,0.33-1.87,0.33
	c-1.74,0-2.76-1.07-2.76-2.71c0-1.49,0.9-2.88,2.62-2.88c1.74,0,2.31,1.43,2.31,2.61c0,0.25-0.02,0.45-0.04,0.57H306.41z
	 M308.77,19.93c0.01-0.5-0.21-1.31-1.11-1.31c-0.84,0-1.19,0.76-1.24,1.31H308.77z M311.06,21.93c0.31,0.19,0.89,0.39,1.38,0.39
	c0.59,0,0.86-0.24,0.86-0.59c0-0.36-0.22-0.55-0.88-0.78c-1.05-0.36-1.49-0.94-1.47-1.56c0-0.95,0.78-1.68,2.02-1.68
	c0.59,0,1.11,0.15,1.42,0.32l-0.26,0.96c-0.23-0.13-0.66-0.31-1.13-0.31c-0.48,0-0.75,0.23-0.75,0.56c0,0.34,0.25,0.51,0.94,0.75
	c0.97,0.35,1.42,0.85,1.43,1.64c0,0.97-0.76,1.67-2.18,1.67c-0.65,0-1.23-0.15-1.63-0.37L311.06,21.93z M321.01,23.17l-0.09-0.59
	h-0.03c-0.33,0.42-0.89,0.72-1.58,0.72c-1.08,0-1.68-0.78-1.68-1.6c0-1.35,1.2-2.04,3.18-2.02v-0.09c0-0.35-0.14-0.94-1.09-0.94
	c-0.53,0-1.08,0.17-1.44,0.4l-0.26-0.88c0.4-0.24,1.09-0.47,1.94-0.47c1.72,0,2.21,1.09,2.21,2.26v1.94c0,0.48,0.02,0.96,0.08,1.29
	H321.01z M320.83,20.55c-0.96-0.02-1.87,0.19-1.87,1c0,0.53,0.34,0.77,0.77,0.77c0.54,0,0.94-0.35,1.06-0.74
	c0.03-0.1,0.04-0.21,0.04-0.3V20.55z M323.58,19.41c0-0.62-0.01-1.13-0.04-1.6h1.19l0.07,0.8h0.03c0.23-0.42,0.81-0.92,1.71-0.92
	c0.94,0,1.9,0.61,1.9,2.3v3.18h-1.35v-3.03c0-0.77-0.29-1.35-1.02-1.35c-0.54,0-0.91,0.39-1.06,0.79c-0.04,0.12-0.06,0.29-0.06,0.44
	v3.15h-1.36V19.41z M334.81,15.36v6.3c0,0.55,0.02,1.14,0.04,1.51h-1.21l-0.05-0.85h-0.02c-0.32,0.59-0.97,0.97-1.75,0.97
	c-1.28,0-2.29-1.09-2.29-2.74c-0.01-1.79,1.11-2.86,2.4-2.86c0.74,0,1.27,0.31,1.51,0.7h0.02v-3.04H334.81z M333.46,20.05
	c0-0.11-0.01-0.24-0.03-0.35c-0.12-0.53-0.55-0.96-1.17-0.96c-0.87,0-1.35,0.77-1.35,1.77c0,0.98,0.48,1.69,1.34,1.69
	c0.55,0,1.03-0.37,1.17-0.96c0.03-0.12,0.04-0.25,0.04-0.4V20.05z M342.75,19.88h-2.79v2.18h3.12v1.11h-4.48v-7.42h4.31v1.11h-2.96
	v1.91h2.79V19.88z M344.21,19.41c0-0.62-0.01-1.13-0.04-1.6h1.19l0.07,0.8h0.03c0.23-0.42,0.81-0.92,1.71-0.92
	c0.94,0,1.9,0.61,1.9,2.3v3.18h-1.35v-3.03c0-0.77-0.29-1.35-1.02-1.35c-0.54,0-0.91,0.39-1.06,0.79c-0.04,0.12-0.06,0.29-0.06,0.44
	v3.15h-1.36V19.41z M351.99,16.28v1.53h1.29v1.01h-1.29v2.37c0,0.65,0.18,0.99,0.69,0.99c0.23,0,0.41-0.03,0.53-0.07l0.02,1.03
	c-0.2,0.08-0.55,0.13-0.98,0.13c-0.5,0-0.91-0.17-1.17-0.44c-0.29-0.31-0.42-0.79-0.42-1.5v-2.52h-0.77v-1.01h0.77V16.6
	L351.99,16.28z M355.75,16.32c0,0.41-0.3,0.73-0.77,0.73c-0.45,0-0.75-0.32-0.75-0.73c0-0.42,0.31-0.74,0.76-0.74
	C355.45,15.58,355.73,15.9,355.75,16.32z M354.3,23.17v-5.36h1.36v5.36H354.3z M358.67,16.28v1.53h1.29v1.01h-1.29v2.37
	c0,0.65,0.18,0.99,0.69,0.99c0.23,0,0.41-0.03,0.53-0.07l0.02,1.03c-0.2,0.08-0.55,0.13-0.98,0.13c-0.5,0-0.91-0.17-1.17-0.44
	c-0.29-0.31-0.42-0.79-0.42-1.5v-2.52h-0.77v-1.01h0.77V16.6L358.67,16.28z M362.42,16.32c0,0.41-0.3,0.73-0.77,0.73
	c-0.45,0-0.75-0.32-0.75-0.73c0-0.42,0.31-0.74,0.76-0.74C362.13,15.58,362.41,15.9,362.42,16.32z M360.98,23.17v-5.36h1.36v5.36
	H360.98z M364.75,20.87c0.03,0.97,0.79,1.39,1.65,1.39c0.63,0,1.08-0.09,1.49-0.24l0.2,0.94c-0.46,0.19-1.1,0.33-1.87,0.33
	c-1.74,0-2.76-1.07-2.76-2.71c0-1.49,0.9-2.88,2.62-2.88c1.74,0,2.31,1.43,2.31,2.61c0,0.25-0.02,0.45-0.04,0.57H364.75z
	 M367.11,19.93c0.01-0.5-0.21-1.31-1.11-1.31c-0.84,0-1.19,0.76-1.24,1.31H367.11z M369.41,21.93c0.31,0.19,0.89,0.39,1.38,0.39
	c0.59,0,0.86-0.24,0.86-0.59c0-0.36-0.22-0.55-0.88-0.78c-1.05-0.36-1.49-0.94-1.47-1.56c0-0.95,0.78-1.68,2.02-1.68
	c0.59,0,1.11,0.15,1.42,0.32l-0.26,0.96c-0.23-0.13-0.66-0.31-1.13-0.31c-0.48,0-0.75,0.23-0.75,0.56c0,0.34,0.25,0.51,0.94,0.75
	c0.97,0.35,1.42,0.85,1.43,1.64c0,0.97-0.76,1.67-2.18,1.67c-0.65,0-1.23-0.15-1.63-0.37L369.41,21.93z"/>
<text transform="matrix(1 0 0 1 12.9995 44.3902)" class="st3 st5 st6">Name</text>
<text transform="matrix(1 0 0 1 214.1675 44.3902)"><tspan x="0" y="0" class="st3 st5 st6">R</tspan><tspan x="4.87" y="0" class="st3 st5 st6">e</tspan><tspan x="9.38" y="0" class="st3 st5 st6">f</tspan><tspan x="11.92" y="0" class="st3 st5 st6">e</tspan><tspan x="16.42" y="0" class="st3 st5 st6">r</tspan><tspan x="19.3" y="0" class="st3 st5 st6">en</tspan><tspan x="28.8" y="0" class="st3 st5 st6">c</tspan><tspan x="32.75" y="0" class="st3 st5 st6">e </tspan><tspan x="39.17" y="0" class="st3 st5 st6">c</tspan><tspan x="43.13" y="0" class="st3 st5 st6">ode</tspan></text>
<text transform="matrix(1 0 0 1 342.6699 44.3902)"><tspan x="0" y="0" class="st3 st5 st6">A</tspan><tspan x="5.39" y="0" class="st3 st5 st6">uthori</tspan><tspan x="28.31" y="0" class="st3 st5 st6">t</tspan><tspan x="31.35" y="0" class="st3 st5 st6">y</tspan></text>
<text transform="matrix(1 0 0 1 413.5361 44.3902)"><tspan x="0" y="0" class="st3 st5 st6">D</tspan><tspan x="5.99" y="0" class="st3 st5 st6">at</tspan><tspan x="13.2" y="0" class="st3 st5 st6">e of issuan</tspan><tspan x="52.62" y="0" class="st3 st5 st6">c</tspan><tspan x="56.57" y="0" class="st3 st5 st6">e</tspan></text>
<text transform="matrix(1 0 0 1 195.4746 64.5865)"><tspan x="0" y="0" class="st7 st8 st6">F</tspan><tspan x="4.1" y="0" class="st7 st8 st6">o</tspan><tspan x="9.04" y="0" class="st7 st8 st6">r</tspan><tspan x="11.91" y="0" class="st7 st8 st6">ei</tspan><tspan x="18.52" y="0" class="st7 st8 st6">g</tspan><tspan x="23.51" y="0" class="st7 st8 st6">n t</tspan><tspan x="33.39" y="0" class="st7 st8 st6">r</tspan><tspan x="36.3" y="0" class="st7 st8 st6">ade and i</tspan><tspan x="70.55" y="0" class="st7 st8 st6">n</tspan><tspan x="75.43" y="0" class="st7 st8 st6">v</tspan><tspan x="79.68" y="0" class="st7 st8 st6">estme</tspan><tspan x="102.74" y="0" class="st7 st8 st6">n</tspan><tspan x="107.71" y="0" class="st7 st8 st6">t</tspan></text>
<text transform="matrix(1 0 0 1 14.6738 88.3731)"><tspan x="0" y="0" class="st7 st8 st6">S</tspan><tspan x="4.41" y="0" class="st7 st8 st6">t</tspan><tspan x="7.39" y="0" class="st7 st8 st6">a</tspan><tspan x="11.7" y="0" class="st7 st8 st6">t</tspan><tspan x="14.63" y="0" class="st7 st8 st6">e </tspan><tspan x="21.04" y="0" class="st7 st8 st6">C</tspan><tspan x="26.17" y="0" class="st7 st8 st6">ouncil: China </tspan><tspan x="76.66" y="0" class="st7 st8 st6">t</tspan><tspan x="79.58" y="0" class="st7 st8 st6">o</tspan><tspan x="84.53" y="0" class="st7 st8 st6"> </tspan><tspan x="86.07" y="0" class="st7 st8 st6">T</tspan><tspan x="89.97" y="0" class="st7 st8 st6">ake </tspan><tspan x="104.95" y="0" class="st7 st8 st6">M</tspan><tspan x="112.2" y="0" class="st7 st8 st6">ulti-</tspan></text>
<text transform="matrix(1 0 0 1 14.6738 100.3702)"><tspan x="0" y="0" class="st7 st8 st6">p</tspan><tspan x="5.12" y="0" class="st7 st8 st6">r</tspan><tspan x="7.97" y="0" class="st7 st8 st6">onged </tspan><tspan x="34.43" y="0" class="st7 st8 st6">M</tspan><tspan x="41.71" y="0" class="st7 st8 st6">easu</tspan><tspan x="59.08" y="0" class="st7 st8 st6">r</tspan><tspan x="61.94" y="0" class="st7 st8 st6">es </tspan><tspan x="71.92" y="0" class="st7 st8 st6">t</tspan><tspan x="74.85" y="0" class="st7 st8 st6">o Keep </tspan><tspan x="102.62" y="0" class="st7 st8 st6">F</tspan><tspan x="106.73" y="0" class="st7 st8 st6">o</tspan><tspan x="111.67" y="0" class="st7 st8 st6">r</tspan><tspan x="114.53" y="0" class="st7 st8 st6">ei</tspan><tspan x="121.15" y="0" class="st7 st8 st6">g</tspan><tspan x="126.13" y="0" class="st7 st8 st6">n </tspan></text>
<text transform="matrix(1 0 0 1 14.6738 112.3673)"><tspan x="0" y="0" class="st7 st8 st6">T</tspan><tspan x="4.07" y="0" class="st7 st8 st6">r</tspan><tspan x="6.97" y="0" class="st7 st8 st6">ade and </tspan><tspan x="39.11" y="0" class="st7 st8 st6">I</tspan><tspan x="41.35" y="0" class="st7 st8 st6">n</tspan><tspan x="46.22" y="0" class="st7 st8 st6">v</tspan><tspan x="50.47" y="0" class="st7 st8 st6">estme</tspan><tspan x="73.54" y="0" class="st7 st8 st6">n</tspan><tspan x="78.51" y="0" class="st7 st8 st6">t </tspan><tspan x="83.39" y="0" class="st7 st8 st6">S</tspan><tspan x="87.8" y="0" class="st7 st8 st6">table</tspan></text>
<text transform="matrix(1 0 0 1 215.8418 100.3702)" class="st7 st9 st6">—</text>
<text transform="matrix(1 0 0 1 344.3438 100.3702)"><tspan x="0" y="0" class="st7 st9 st6">Sta</tspan><tspan x="11.75" y="0" class="st7 st9 st6">t</tspan><tspan x="14.69" y="0" class="st7 st9 st6">e </tspan><tspan x="21.1" y="0" class="st7 st9 st6">C</tspan><tspan x="26.28" y="0" class="st7 st9 st6">ouncil</tspan></text>
<text transform="matrix(1 0 0 1 415.21 100.3702)"><tspan x="0" y="0" class="st7 st9 st6">M</tspan><tspan x="7.31" y="0" class="st7 st9 st6">a</tspan><tspan x="11.65" y="0" class="st7 st9 st6">r</tspan><tspan x="14.5" y="0" class="st7 st9 st6">ch 11, 2020</tspan></text>
<text transform="matrix(1 0 0 1 14.6738 139.3941)"><tspan x="0" y="0" class="st7 st8 st6">C</tspan><tspan x="5.2" y="0" class="st7 st8 st6">i</tspan><tspan x="7.31" y="0" class="st7 st8 st6">r</tspan><tspan x="10.16" y="0" class="st7 st8 st6">cular on </tspan><tspan x="42.31" y="0" class="st7 st8 st6">S</tspan><tspan x="46.72" y="0" class="st7 st8 st6">tabilizing </tspan><tspan x="83.38" y="0" class="st7 st8 st6">F</tspan><tspan x="87.49" y="0" class="st7 st8 st6">o</tspan><tspan x="92.43" y="0" class="st7 st8 st6">r</tspan><tspan x="95.29" y="0" class="st7 st8 st6">ei</tspan><tspan x="101.9" y="0" class="st7 st8 st6">g</tspan><tspan x="106.88" y="0" class="st7 st8 st6">n</tspan><tspan x="111.88" y="0" class="st7 st8 st6"> </tspan><tspan x="113.42" y="0" class="st7 st8 st6">T</tspan><tspan x="117.5" y="0" class="st7 st8 st6">r</tspan><tspan x="120.41" y="0" class="st7 st8 st6">ade and </tspan></text>
<text transform="matrix(1 0 0 1 14.6738 151.3912)"><tspan x="0" y="0" class="st7 st8 st6">I</tspan><tspan x="2.24" y="0" class="st7 st8 st6">n</tspan><tspan x="7.12" y="0" class="st7 st8 st6">v</tspan><tspan x="11.37" y="0" class="st7 st8 st6">estme</tspan><tspan x="34.43" y="0" class="st7 st8 st6">n</tspan><tspan x="39.4" y="0" class="st7 st8 st6">t and </tspan><tspan x="60.61" y="0" class="st7 st8 st6">S</tspan><tspan x="65.02" y="0" class="st7 st8 st6">timul</tspan><tspan x="84.69" y="0" class="st7 st8 st6">a</tspan><tspan x="88.99" y="0" class="st7 st8 st6">ting </tspan><tspan x="106.01" y="0" class="st7 st8 st6">C</tspan><tspan x="111.14" y="0" class="st7 st8 st6">onsumption in </tspan></text>
<text transform="matrix(1 0 0 1 14.6738 163.3883)"><tspan x="0" y="0" class="st7 st8 st6">R</tspan><tspan x="4.87" y="0" class="st7 st8 st6">esponse </tspan><tspan x="37.98" y="0" class="st7 st8 st6">t</tspan><tspan x="40.9" y="0" class="st7 st8 st6">o the N</tspan><tspan x="68.07" y="0" class="st7 st8 st6">o</tspan><tspan x="72.94" y="0" class="st7 st8 st6">v</tspan><tspan x="77.19" y="0" class="st7 st8 st6">el </tspan><tspan x="85.73" y="0" class="st7 st8 st6">C</tspan><tspan x="90.85" y="0" class="st7 st8 st6">o</tspan><tspan x="95.79" y="0" class="st7 st8 st6">r</tspan><tspan x="98.66" y="0" class="st7 st8 st6">on</tspan><tspan x="108.59" y="0" class="st7 st8 st6">a</tspan><tspan x="112.86" y="0" class="st7 st8 st6">virus </tspan><tspan x="132.67" y="0" class="st7 st8 st6">P</tspan><tspan x="137.32" y="0" class="st7 st8 st6">neumonia</tspan></text>
<text transform="matrix(1 0 0 1 215.8418 151.3912)"><tspan x="0" y="0" class="st7 st9 st6">Shang </tspan><tspan x="25.7" y="0" class="st7 st9 st6">Z</tspan><tspan x="30.56" y="0" class="st7 st9 st6">ong </tspan><tspan x="47.44" y="0" class="st7 st9 st6">F</tspan><tspan x="51.38" y="0" class="st7 st9 st6">a [2020] N</tspan><tspan x="89.04" y="0" class="st7 st9 st6">o</tspan><tspan x="93.83" y="0" class="st7 st9 st6">.30</tspan></text>
<text transform="matrix(1 0 0 1 344.3438 151.3912)"><tspan x="0" y="0" class="st7 st9 st6">MOF</tspan><tspan x="17.82" y="0" class="st7 st9 st6">C</tspan><tspan x="22.91" y="0" class="st7 st9 st6">OM</tspan></text>
<text transform="matrix(1 0 0 1 415.21 151.3912)"><tspan x="0" y="0" class="st7 st9 st6">F</tspan><tspan x="4.09" y="0" class="st7 st9 st6">ebrua</tspan><tspan x="25.96" y="0" class="st7 st9 st6">r</tspan><tspan x="29.16" y="0" class="st7 st9 st6">y 18, 2020</tspan></text>
<text transform="matrix(1 0 0 1 215.6436 187.5352)"><tspan x="0" y="0" class="st7 st8 st6">H</tspan><tspan x="5.95" y="0" class="st7 st8 st6">igh-</tspan><tspan x="20.84" y="0" class="st7 st8 st6">t</tspan><tspan x="23.77" y="0" class="st7 st8 st6">ech indust</tspan><tspan x="62.89" y="0" class="st7 st8 st6">r</tspan><tspan x="66.06" y="0" class="st7 st8 st6">y</tspan></text>
<text transform="matrix(1 0 0 1 14.6738 211.6734)"><tspan x="0" y="0" class="st7 st8 st6">Noti</tspan><tspan x="15.95" y="0" class="st7 st8 st6">c</tspan><tspan x="19.93" y="0" class="st7 st8 st6">e on </tspan><tspan x="38.19" y="0" class="st7 st8 st6">F</tspan><tspan x="42.25" y="0" class="st7 st8 st6">u</tspan><tspan x="47.21" y="0" class="st7 st8 st6">r</tspan><tspan x="50.36" y="0" class="st7 st8 st6">ther </tspan><tspan x="67.7" y="0" class="st7 st8 st6">P</tspan><tspan x="72.35" y="0" class="st7 st8 st6">r</tspan><tspan x="75.2" y="0" class="st7 st8 st6">o</tspan><tspan x="80.08" y="0" class="st7 st8 st6">viding </tspan><tspan x="105.63" y="0" class="st7 st8 st6">F</tspan><tspan x="109.62" y="0" class="st7 st8 st6">acilit</tspan><tspan x="127.3" y="0" class="st7 st8 st6">a</tspan><tspan x="131.6" y="0" class="st7 st8 st6">tion </tspan></text>
<text transform="matrix(1 0 0 1 14.6738 223.6705)"><tspan x="0" y="0" class="st7 st8 st6">S</tspan><tspan x="4.49" y="0" class="st7 st8 st6">e</tspan><tspan x="9" y="0" class="st7 st8 st6">r</tspan><tspan x="12.16" y="0" class="st7 st8 st6">vi</tspan><tspan x="18.59" y="0" class="st7 st8 st6">c</tspan><tspan x="22.57" y="0" class="st7 st8 st6">es </tspan><tspan x="32.55" y="0" class="st7 st8 st6">f</tspan><tspan x="35.06" y="0" class="st7 st8 st6">or</tspan><tspan x="42.95" y="0" class="st7 st8 st6"> </tspan><tspan x="44.54" y="0" class="st7 st8 st6">V</tspan><tspan x="49.27" y="0" class="st7 st8 st6">a</tspan><tspan x="53.61" y="0" class="st7 st8 st6">r</tspan><tspan x="56.59" y="0" class="st7 st8 st6">ious </tspan><tspan x="74.07" y="0" class="st7 st8 st6">S</tspan><tspan x="78.55" y="0" class="st7 st8 st6">cien</tspan><tspan x="94.19" y="0" class="st7 st8 st6">c</tspan><tspan x="98.18" y="0" class="st7 st8 st6">e and</tspan><tspan x="119" y="0" class="st7 st8 st6"> </tspan><tspan x="120.54" y="0" class="st7 st8 st6">T</tspan><tspan x="124.39" y="0" class="st7 st8 st6">echnology </tspan></text>
<text transform="matrix(1 0 0 1 14.6738 235.6671)"><tspan x="0" y="0" class="st7 st8 st6">E</tspan><tspan x="4.43" y="0" class="st7 st8 st6">n</tspan><tspan x="9.4" y="0" class="st7 st8 st6">t</tspan><tspan x="12.32" y="0" class="st7 st8 st6">e</tspan><tspan x="16.83" y="0" class="st7 st8 st6">r</tspan><tspan x="19.8" y="0" class="st7 st8 st6">p</tspan><tspan x="24.92" y="0" class="st7 st8 st6">r</tspan><tspan x="27.89" y="0" class="st7 st8 st6">ises </tspan><tspan x="43.54" y="0" class="st7 st8 st6">D</tspan><tspan x="49.55" y="0" class="st7 st8 st6">u</tspan><tspan x="54.51" y="0" class="st7 st8 st6">r</tspan><tspan x="57.49" y="0" class="st7 st8 st6">ing the Epidemic</tspan></text>
<text transform="matrix(1 0 0 1 215.8418 223.6705)"><tspan x="0" y="0" class="st7 st9 st6">Guo </tspan><tspan x="17.62" y="0" class="st7 st9 st6">K</tspan><tspan x="22.59" y="0" class="st7 st9 st6">e Huo Zi [2020] N</tspan><tspan x="87.08" y="0" class="st7 st9 st6">o</tspan><tspan x="91.86" y="0" class="st7 st9 st6">.38</tspan></text>
<text transform="matrix(1 0 0 1 344.3438 223.6705)" class="st7 st9 st6">MOST</text>
<text transform="matrix(1 0 0 1 415.21 223.6705)"><tspan x="0" y="0" class="st7 st9 st6">F</tspan><tspan x="4.09" y="0" class="st7 st9 st6">ebrua</tspan><tspan x="25.96" y="0" class="st7 st9 st6">r</tspan><tspan x="29.16" y="0" class="st7 st9 st6">y 6, 2020</tspan></text>
<text transform="matrix(1 0 0 1 206.6074 260.5162)"><tspan x="0" y="0" class="st7 st8 st6">T</tspan><tspan x="4.08" y="0" class="st7 st8 st6">r</tspan><tspan x="6.98" y="0" class="st7 st8 st6">anspo</tspan><tspan x="29.94" y="0" class="st7 st8 st6">r</tspan><tspan x="33.09" y="0" class="st7 st8 st6">t</tspan><tspan x="36.07" y="0" class="st7 st8 st6">a</tspan><tspan x="40.37" y="0" class="st7 st8 st6">tion indust</tspan><tspan x="80.98" y="0" class="st7 st8 st6">r</tspan><tspan x="84.15" y="0" class="st7 st8 st6">y</tspan></text>
<text transform="matrix(1 0 0 1 14.6738 285.3648)"><tspan x="0" y="0" class="st7 st8 st6">C</tspan><tspan x="5.2" y="0" class="st7 st8 st6">i</tspan><tspan x="7.31" y="0" class="st7 st8 st6">r</tspan><tspan x="10.16" y="0" class="st7 st8 st6">cular about </tspan><tspan x="54.71" y="0" class="st7 st8 st6">R</tspan><tspan x="59.58" y="0" class="st7 st8 st6">esuming</tspan><tspan x="92.25" y="0" class="st7 st8 st6"> </tspan><tspan x="93.8" y="0" class="st7 st8 st6">T</tspan><tspan x="97.87" y="0" class="st7 st8 st6">r</tspan><tspan x="100.78" y="0" class="st7 st8 st6">anspo</tspan><tspan x="123.74" y="0" class="st7 st8 st6">r</tspan><tspan x="126.89" y="0" class="st7 st8 st6">t </tspan><tspan x="131.78" y="0" class="st7 st8 st6">S</tspan><tspan x="136.27" y="0" class="st7 st8 st6">e</tspan><tspan x="140.78" y="0" class="st7 st8 st6">r</tspan><tspan x="143.93" y="0" class="st7 st8 st6">vi</tspan><tspan x="150.37" y="0" class="st7 st8 st6">c</tspan><tspan x="154.35" y="0" class="st7 st8 st6">es in </tspan></text>
<text transform="matrix(1 0 0 1 14.6738 297.3619)"><tspan x="0" y="0" class="st7 st8 st6">T</tspan><tspan x="3.9" y="0" class="st7 st8 st6">a</tspan><tspan x="8.23" y="0" class="st7 st8 st6">r</tspan><tspan x="11.11" y="0" class="st7 st8 st6">ge</tspan><tspan x="20.65" y="0" class="st7 st8 st6">t</tspan><tspan x="23.58" y="0" class="st7 st8 st6">ed and O</tspan><tspan x="57.59" y="0" class="st7 st8 st6">r</tspan><tspan x="60.44" y="0" class="st7 st8 st6">de</tspan><tspan x="70.03" y="0" class="st7 st8 st6">r</tspan><tspan x="73.01" y="0" class="st7 st8 st6">ly </tspan><tspan x="81.28" y="0" class="st7 st8 st6">M</tspan><tspan x="88.57" y="0" class="st7 st8 st6">anner and </tspan><tspan x="128.57" y="0" class="st7 st8 st6">P</tspan><tspan x="133.22" y="0" class="st7 st8 st6">ushing </tspan><tspan x="160.78" y="0" class="st7 st8 st6">f</tspan><tspan x="163.3" y="0" class="st7 st8 st6">or </tspan></text>
<text transform="matrix(1 0 0 1 14.6738 309.359)"><tspan x="0" y="0" class="st7 st8 st6">R</tspan><tspan x="4.87" y="0" class="st7 st8 st6">esumption of </tspan><tspan x="56.93" y="0" class="st7 st8 st6">P</tspan><tspan x="61.58" y="0" class="st7 st8 st6">r</tspan><tspan x="64.43" y="0" class="st7 st8 st6">odu</tspan><tspan x="79.41" y="0" class="st7 st8 st6">c</tspan><tspan x="83.55" y="0" class="st7 st8 st6">tion and Ope</tspan><tspan x="132.63" y="0" class="st7 st8 st6">r</tspan><tspan x="135.53" y="0" class="st7 st8 st6">a</tspan><tspan x="139.84" y="0" class="st7 st8 st6">tion</tspan></text>
<text transform="matrix(1 0 0 1 215.8418 297.3619)"><tspan x="0" y="0" class="st7 st9 st6">Jiao</tspan><tspan x="14.71" y="0" class="st7 st9 st6"> </tspan><tspan x="16.18" y="0" class="st7 st9 st6">Y</tspan><tspan x="20.68" y="0" class="st7 st9 st6">un </tspan><tspan x="32.54" y="0" class="st7 st9 st6">M</tspan><tspan x="39.91" y="0" class="st7 st9 st6">ing Dian [2020] N</tspan><tspan x="104.71" y="0" class="st7 st9 st6">o</tspan><tspan x="109.48" y="0" class="st7 st9 st6">.95</tspan></text>
<text transform="matrix(1 0 0 1 344.3438 297.3619)"><tspan x="0" y="0" class="st7 st9 st6">M</tspan><tspan x="7.24" y="0" class="st7 st9 st6">O</tspan><tspan x="13.23" y="0" class="st7 st9 st6">T</tspan></text>
<text transform="matrix(1 0 0 1 415.21 297.3619)"><tspan x="0" y="0" class="st7 st9 st6">M</tspan><tspan x="7.31" y="0" class="st7 st9 st6">a</tspan><tspan x="11.65" y="0" class="st7 st9 st6">r</tspan><tspan x="14.5" y="0" class="st7 st9 st6">ch 13, 2020</tspan></text>
<text transform="matrix(1 0 0 1 218.7666 334.2086)"><tspan x="0" y="0" class="st7 st8 st6">A</tspan><tspan x="5.33" y="0" class="st7 st8 st6">vi</tspan><tspan x="11.76" y="0" class="st7 st8 st6">a</tspan><tspan x="16.06" y="0" class="st7 st8 st6">tion indust</tspan><tspan x="56.67" y="0" class="st7 st8 st6">r</tspan><tspan x="59.83" y="0" class="st7 st8 st6">y</tspan></text>
<text transform="matrix(1 0 0 1 14.6738 359.0572)"><tspan x="0" y="0" class="st7 st8 st6">C</tspan><tspan x="5.2" y="0" class="st7 st8 st6">i</tspan><tspan x="7.31" y="0" class="st7 st8 st6">r</tspan><tspan x="10.16" y="0" class="st7 st8 st6">cular about </tspan><tspan x="54.71" y="0" class="st7 st8 st6">C</tspan><tspan x="59.87" y="0" class="st7 st8 st6">apital Suppo</tspan><tspan x="107.36" y="0" class="st7 st8 st6">r</tspan><tspan x="110.51" y="0" class="st7 st8 st6">t </tspan><tspan x="115.4" y="0" class="st7 st8 st6">P</tspan><tspan x="119.96" y="0" class="st7 st8 st6">olicies </tspan></text>
<text transform="matrix(1 0 0 1 14.6738 371.0543)"><tspan x="0" y="0" class="st7 st8 st6">t</tspan><tspan x="2.92" y="0" class="st7 st8 st6">o </tspan><tspan x="9.77" y="0" class="st7 st8 st6">C</tspan><tspan x="14.98" y="0" class="st7 st8 st6">ivil </tspan><tspan x="27.55" y="0" class="st7 st8 st6">A</tspan><tspan x="32.87" y="0" class="st7 st8 st6">vi</tspan><tspan x="39.3" y="0" class="st7 st8 st6">a</tspan><tspan x="43.6" y="0" class="st7 st8 st6">tion E</tspan><tspan x="64.96" y="0" class="st7 st8 st6">n</tspan><tspan x="69.92" y="0" class="st7 st8 st6">t</tspan><tspan x="72.85" y="0" class="st7 st8 st6">e</tspan><tspan x="77.36" y="0" class="st7 st8 st6">r</tspan><tspan x="80.33" y="0" class="st7 st8 st6">p</tspan><tspan x="85.45" y="0" class="st7 st8 st6">r</tspan><tspan x="88.42" y="0" class="st7 st8 st6">ises </tspan><tspan x="104.07" y="0" class="st7 st8 st6">D</tspan><tspan x="110.09" y="0" class="st7 st8 st6">u</tspan><tspan x="115.05" y="0" class="st7 st8 st6">r</tspan><tspan x="118.02" y="0" class="st7 st8 st6">ing </tspan></text>
<text transform="matrix(1 0 0 1 14.6738 383.0514)"><tspan x="0" y="0" class="st7 st8 st6">the </tspan><tspan x="14.39" y="0" class="st7 st8 st6">C</tspan><tspan x="19.52" y="0" class="st7 st8 st6">o</tspan><tspan x="24.46" y="0" class="st7 st8 st6">r</tspan><tspan x="27.31" y="0" class="st7 st8 st6">on</tspan><tspan x="37.25" y="0" class="st7 st8 st6">a</tspan><tspan x="41.52" y="0" class="st7 st8 st6">virus Epidemic</tspan></text>
<text transform="matrix(1 0 0 1 215.8418 371.0543)"><tspan x="0" y="0" class="st7 st9 st6">C</tspan><tspan x="5.19" y="0" class="st7 st9 st6">ai Jin [2020] N</tspan><tspan x="57.29" y="0" class="st7 st9 st6">o</tspan><tspan x="62.07" y="0" class="st7 st9 st6">.30</tspan></text>
<text transform="matrix(1 0 0 1 344.3438 371.0543)" class="st7 st9 st6">MOF</text>
<text transform="matrix(1 0 0 1 415.21 371.0543)"><tspan x="0" y="0" class="st7 st9 st6">M</tspan><tspan x="7.31" y="0" class="st7 st9 st6">a</tspan><tspan x="11.65" y="0" class="st7 st9 st6">r</tspan><tspan x="14.5" y="0" class="st7 st9 st6">ch 4, 2020</tspan></text>
<text transform="matrix(1 0 0 1 186.1597 407.9)"><tspan x="0" y="0" class="st7 st8 st6">C</tspan><tspan x="5.13" y="0" class="st7 st8 st6">onstru</tspan><tspan x="29.51" y="0" class="st7 st8 st6">c</tspan><tspan x="33.66" y="0" class="st7 st8 st6">tion en</tspan><tspan x="60.09" y="0" class="st7 st8 st6">g</tspan><tspan x="65.07" y="0" class="st7 st8 st6">inee</tspan><tspan x="81.19" y="0" class="st7 st8 st6">r</tspan><tspan x="84.16" y="0" class="st7 st8 st6">ing indust</tspan><tspan x="121.88" y="0" class="st7 st8 st6">r</tspan><tspan x="125.03" y="0" class="st7 st8 st6">y</tspan></text>
<text transform="matrix(1 0 0 1 14.6738 432.7496)"><tspan x="0" y="0" class="st7 st8 st6">C</tspan><tspan x="5.2" y="0" class="st7 st8 st6">i</tspan><tspan x="7.31" y="0" class="st7 st8 st6">r</tspan><tspan x="10.16" y="0" class="st7 st8 st6">cular about E</tspan><tspan x="59.14" y="0" class="st7 st8 st6">x</tspan><tspan x="63.41" y="0" class="st7 st8 st6">t</tspan><tspan x="66.34" y="0" class="st7 st8 st6">ending the</tspan><tspan x="107.44" y="0" class="st7 st8 st6"> </tspan><tspan x="109.02" y="0" class="st7 st8 st6">V</tspan><tspan x="113.75" y="0" class="st7 st8 st6">alidi</tspan><tspan x="129.5" y="0" class="st7 st8 st6">t</tspan><tspan x="132.55" y="0" class="st7 st8 st6">y </tspan></text>
<text transform="matrix(1 0 0 1 14.6738 444.7467)"><tspan x="0" y="0" class="st7 st8 st6">P</tspan><tspan x="4.56" y="0" class="st7 st8 st6">e</tspan><tspan x="9.07" y="0" class="st7 st8 st6">r</tspan><tspan x="12.04" y="0" class="st7 st8 st6">iod of </tspan><tspan x="35.55" y="0" class="st7 st8 st6">C</tspan><tspan x="40.67" y="0" class="st7 st8 st6">onstru</tspan><tspan x="65.05" y="0" class="st7 st8 st6">c</tspan><tspan x="69.19" y="0" class="st7 st8 st6">tion En</tspan><tspan x="95.54" y="0" class="st7 st8 st6">g</tspan><tspan x="100.52" y="0" class="st7 st8 st6">inee</tspan><tspan x="116.64" y="0" class="st7 st8 st6">r</tspan><tspan x="119.61" y="0" class="st7 st8 st6">ing </tspan></text>
<path class="st7" d="M18.5,453.9h-2.36v2.19h2.63v0.66h-3.41v-6.07h3.28v0.66h-2.49v1.92h2.36V453.9z M19.76,453.57
	c0-0.45-0.01-0.82-0.04-1.18h0.7l0.05,0.72h0.02c0.22-0.41,0.72-0.82,1.44-0.82c0.6,0,1.54,0.36,1.54,1.85v2.6h-0.79v-2.51
	c0-0.7-0.26-1.29-1.01-1.29c-0.52,0-0.93,0.37-1.06,0.81c-0.04,0.1-0.05,0.23-0.05,0.37v2.62h-0.79V453.57z M25.67,451.13v1.25h1.13
	v0.6h-1.13v2.35c0,0.54,0.15,0.85,0.59,0.85c0.21,0,0.36-0.03,0.46-0.05l0.04,0.59c-0.15,0.06-0.4,0.11-0.7,0.11
	c-0.37,0-0.67-0.12-0.86-0.33c-0.23-0.23-0.31-0.62-0.31-1.13v-2.38h-0.68v-0.6h0.68v-1.04L25.67,451.13z M28.08,454.71
	c0.02,1.07,0.7,1.51,1.49,1.51c0.57,0,0.91-0.1,1.21-0.23l0.14,0.57c-0.28,0.13-0.76,0.27-1.45,0.27c-1.34,0-2.14-0.88-2.14-2.2
	s0.77-2.35,2.04-2.35c1.42,0,1.8,1.25,1.8,2.05c0,0.16-0.02,0.29-0.03,0.37H28.08z M30.41,454.14c0.01-0.5-0.21-1.29-1.1-1.29
	c-0.8,0-1.15,0.74-1.22,1.29H30.41z M32.15,453.75c0-0.51-0.01-0.95-0.04-1.36h0.69l0.03,0.86h0.04c0.2-0.59,0.68-0.95,1.21-0.95
	c0.09,0,0.15,0.01,0.23,0.03v0.75c-0.08-0.02-0.16-0.03-0.27-0.03c-0.56,0-0.95,0.42-1.06,1.02c-0.02,0.11-0.04,0.23-0.04,0.37v2.32
	h-0.78V453.75z M35.13,453.81c0-0.56-0.02-1.01-0.04-1.42h0.71l0.04,0.75h0.02c0.32-0.53,0.84-0.85,1.55-0.85
	c1.05,0,1.85,0.89,1.85,2.21c0,1.57-0.95,2.34-1.98,2.34c-0.58,0-1.08-0.25-1.34-0.68h-0.02v2.37h-0.78V453.81z M35.91,454.97
	c0,0.12,0.02,0.23,0.04,0.32c0.14,0.55,0.62,0.93,1.19,0.93c0.84,0,1.32-0.68,1.32-1.68c0-0.87-0.46-1.62-1.3-1.62
	c-0.54,0-1.04,0.39-1.2,0.98c-0.03,0.1-0.05,0.22-0.05,0.32V454.97z M40.25,453.75c0-0.51-0.01-0.95-0.04-1.36h0.69l0.03,0.86h0.04
	c0.2-0.59,0.68-0.95,1.21-0.95c0.09,0,0.15,0.01,0.23,0.03v0.75c-0.08-0.02-0.16-0.03-0.27-0.03c-0.56,0-0.95,0.42-1.06,1.02
	c-0.02,0.11-0.04,0.23-0.04,0.37v2.32h-0.78V453.75z M44.11,451.16c0.01,0.27-0.19,0.49-0.5,0.49c-0.28,0-0.48-0.22-0.48-0.49
	c0-0.28,0.21-0.5,0.5-0.5C43.92,450.67,44.11,450.88,44.11,451.16z M43.23,456.74v-4.36h0.79v4.36H43.23z M45.23,455.93
	c0.23,0.15,0.65,0.32,1.04,0.32c0.58,0,0.85-0.29,0.85-0.65c0-0.38-0.23-0.59-0.81-0.8c-0.78-0.28-1.15-0.71-1.15-1.23
	c0-0.7,0.57-1.28,1.5-1.28c0.44,0,0.83,0.13,1.07,0.27l-0.2,0.58c-0.17-0.11-0.49-0.25-0.89-0.25c-0.47,0-0.73,0.27-0.73,0.59
	c0,0.36,0.26,0.52,0.83,0.74c0.76,0.29,1.14,0.67,1.14,1.31c0,0.77-0.59,1.31-1.63,1.31c-0.48,0-0.92-0.12-1.22-0.3L45.23,455.93z
	 M49.34,454.71c0.02,1.07,0.7,1.51,1.49,1.51c0.57,0,0.91-0.1,1.21-0.23l0.14,0.57c-0.28,0.13-0.76,0.27-1.45,0.27
	c-1.34,0-2.14-0.88-2.14-2.2s0.77-2.35,2.04-2.35c1.42,0,1.8,1.25,1.8,2.05c0,0.16-0.02,0.29-0.03,0.37H49.34z M51.66,454.14
	c0.01-0.5-0.21-1.29-1.1-1.29c-0.8,0-1.15,0.74-1.22,1.29H51.66z M53.3,455.93c0.23,0.15,0.65,0.32,1.04,0.32
	c0.58,0,0.85-0.29,0.85-0.65c0-0.38-0.23-0.59-0.81-0.8c-0.78-0.28-1.15-0.71-1.15-1.23c0-0.7,0.57-1.28,1.5-1.28
	c0.44,0,0.83,0.13,1.07,0.27l-0.2,0.58c-0.17-0.11-0.49-0.25-0.89-0.25c-0.47,0-0.73,0.27-0.73,0.59c0,0.36,0.26,0.52,0.83,0.74
	c0.76,0.29,1.14,0.67,1.14,1.31c0,0.77-0.59,1.31-1.63,1.31c-0.48,0-0.92-0.12-1.22-0.3L53.3,455.93z M57.56,450.58l-0.15,2.16
	h-0.49l-0.14-2.16H57.56z M65.61,457.63c-0.82-0.22-1.62-0.46-2.32-0.7c-0.13-0.05-0.25-0.09-0.37-0.09
	c-1.44-0.05-2.67-1.12-2.67-3.07c0-1.94,1.19-3.2,2.83-3.2c1.65,0,2.72,1.28,2.72,3.07c0,1.56-0.72,2.56-1.73,2.91v0.04
	c0.6,0.15,1.26,0.3,1.77,0.39L65.61,457.63z M64.96,453.68c0-1.22-0.63-2.47-1.92-2.47c-1.32,0-1.97,1.22-1.96,2.54
	c-0.01,1.29,0.7,2.45,1.93,2.45C64.26,456.2,64.96,455.07,64.96,453.68z M70.45,455.55c0,0.45,0.01,0.85,0.04,1.19h-0.7l-0.05-0.71
	h-0.02c-0.21,0.35-0.67,0.81-1.44,0.81c-0.68,0-1.5-0.38-1.5-1.91v-2.55h0.79v2.41c0,0.83,0.25,1.39,0.97,1.39
	c0.53,0,0.9-0.37,1.04-0.72c0.05-0.12,0.07-0.26,0.07-0.41v-2.67h0.79V455.55z M74.17,456.74l-0.06-0.55h-0.03
	c-0.24,0.34-0.71,0.65-1.33,0.65c-0.88,0-1.33-0.62-1.33-1.25c0-1.05,0.94-1.63,2.62-1.62v-0.09c0-0.36-0.1-1.01-0.99-1.01
	c-0.41,0-0.83,0.13-1.13,0.32l-0.18-0.52c0.36-0.23,0.88-0.39,1.43-0.39c1.33,0,1.66,0.91,1.66,1.78v1.63
	c0,0.38,0.02,0.75,0.07,1.04H74.17z M74.06,454.52c-0.86-0.02-1.85,0.14-1.85,0.98c0,0.51,0.34,0.76,0.75,0.76
	c0.57,0,0.93-0.36,1.05-0.73c0.03-0.08,0.05-0.17,0.05-0.25V454.52z M76.1,450.35h0.79v6.39H76.1V450.35z M79.1,451.16
	c0.01,0.27-0.19,0.49-0.5,0.49c-0.28,0-0.48-0.22-0.48-0.49c0-0.28,0.21-0.5,0.5-0.5C78.91,450.67,79.1,450.88,79.1,451.16z
	 M78.22,456.74v-4.36h0.79v4.36H78.22z M80.41,456.74v-3.75H79.8v-0.6h0.61v-0.23c0-1.15,0.68-1.9,1.9-1.9
	c0.41,0,0.88,0.13,1.11,0.29l-0.23,0.6c-0.19-0.14-0.53-0.25-0.92-0.25c-0.84,0-1.08,0.59-1.08,1.28v0.22h2.53v4.36h-0.78v-3.75
	h-1.75v3.75H80.41z M88.14,456.58c-0.21,0.11-0.67,0.25-1.25,0.25c-1.31,0-2.17-0.89-2.17-2.22c0-1.34,0.92-2.31,2.34-2.31
	c0.47,0,0.88,0.12,1.1,0.23l-0.18,0.61c-0.19-0.11-0.49-0.21-0.92-0.21c-1,0-1.54,0.74-1.54,1.65c0,1.01,0.65,1.63,1.51,1.63
	c0.45,0,0.75-0.12,0.97-0.22L88.14,456.58z M91.48,456.74l-0.06-0.55h-0.03c-0.24,0.34-0.71,0.65-1.33,0.65
	c-0.88,0-1.33-0.62-1.33-1.25c0-1.05,0.94-1.63,2.62-1.62v-0.09c0-0.36-0.1-1.01-0.99-1.01c-0.41,0-0.83,0.13-1.13,0.32l-0.18-0.52
	c0.36-0.23,0.88-0.39,1.43-0.39c1.33,0,1.66,0.91,1.66,1.78v1.63c0,0.38,0.02,0.75,0.07,1.04H91.48z M91.36,454.52
	c-0.86-0.02-1.85,0.14-1.85,0.98c0,0.51,0.34,0.76,0.75,0.76c0.57,0,0.93-0.36,1.05-0.73c0.03-0.08,0.05-0.17,0.05-0.25V454.52z
	 M94.32,451.13v1.25h1.13v0.6h-1.13v2.35c0,0.54,0.15,0.85,0.59,0.85c0.21,0,0.36-0.03,0.46-0.05l0.04,0.59
	c-0.15,0.06-0.4,0.11-0.7,0.11c-0.37,0-0.67-0.12-0.86-0.33c-0.23-0.23-0.31-0.62-0.31-1.13v-2.38h-0.68v-0.6h0.68v-1.04
	L94.32,451.13z M97.23,451.16c0.01,0.27-0.19,0.49-0.5,0.49c-0.28,0-0.48-0.22-0.48-0.49c0-0.28,0.21-0.5,0.5-0.5
	C97.04,450.67,97.23,450.88,97.23,451.16z M96.35,456.74v-4.36h0.79v4.36H96.35z M102.4,454.53c0,1.61-1.12,2.31-2.17,2.31
	c-1.18,0-2.09-0.86-2.09-2.24c0-1.46,0.95-2.31,2.16-2.31C101.55,452.29,102.4,453.2,102.4,454.53z M98.94,454.57
	c0,0.95,0.55,1.67,1.32,1.67c0.76,0,1.32-0.71,1.32-1.69c0-0.74-0.37-1.67-1.31-1.67S98.94,453.75,98.94,454.57z M103.39,453.57
	c0-0.45-0.01-0.82-0.04-1.18h0.7l0.05,0.72h0.02c0.22-0.41,0.72-0.82,1.44-0.82c0.6,0,1.54,0.36,1.54,1.85v2.6h-0.79v-2.51
	c0-0.7-0.26-1.29-1.01-1.29c-0.52,0-0.93,0.37-1.06,0.81c-0.04,0.1-0.05,0.23-0.05,0.37v2.62h-0.79V453.57z M108.28,455.93
	c0.23,0.15,0.65,0.32,1.04,0.32c0.58,0,0.85-0.29,0.85-0.65c0-0.38-0.23-0.59-0.81-0.8c-0.78-0.28-1.15-0.71-1.15-1.23
	c0-0.7,0.57-1.28,1.5-1.28c0.44,0,0.83,0.13,1.07,0.27l-0.2,0.58c-0.17-0.11-0.49-0.25-0.89-0.25c-0.47,0-0.73,0.27-0.73,0.59
	c0,0.36,0.26,0.52,0.83,0.74c0.76,0.29,1.14,0.67,1.14,1.31c0,0.77-0.59,1.31-1.63,1.31c-0.48,0-0.92-0.12-1.22-0.3L108.28,455.93z"
	/>
<text transform="matrix(1 0 0 1 215.8418 444.7467)"><tspan x="0" y="0" class="st7 st9 st6">Jian Si Ju Han Shi [2020] N</tspan><tspan x="97.29" y="0" class="st7 st9 st6">o</tspan><tspan x="102.07" y="0" class="st7 st9 st6">.38</tspan></text>
<text transform="matrix(1 0 0 1 344.3438 444.7467)" class="st7 st9 st6">MOHURD</text>
<text transform="matrix(1 0 0 1 415.21 444.7467)"><tspan x="0" y="0" class="st7 st9 st6">M</tspan><tspan x="7.31" y="0" class="st7 st9 st6">a</tspan><tspan x="11.65" y="0" class="st7 st9 st6">r</tspan><tspan x="14.5" y="0" class="st7 st9 st6">ch 6, 2020</tspan></text>
</svg>
